<svg xmlns="http://www.w3.org/2000/svg" viewBox="0 0 141.02 178.55"><defs><style>.cls-1,.cls-4{fill:#fff;}.cls-2{fill:#757575;}.cls-3{fill:#ccc;}.cls-4{stroke:#757575;stroke-linejoin:bevel;}.cls-5{fill:#1572b6;stroke:#126293;stroke-miterlimit:10;}.cls-6{fill:#126293;}</style></defs><title>css_1</title><g id="Layer_2" data-name="Layer 2"><g id="svg"><g id="css"><g id="page"><path class="cls-1" d="M8,178.05a7.5,7.5,0,0,1-7.5-7.5V8.35A7.51,7.51,0,0,1,8,.85H88.21A7.48,7.48,0,0,1,93.49,3L138,47.14a7.56,7.56,0,0,1,2.22,5.33V170.55a7.51,7.51,0,0,1-7.5,7.5Z"/><path class="cls-2" d="M88.21,1.35a7,7,0,0,1,4.93,2L137.6,47.5a7,7,0,0,1,2.07,5V170.55a7,7,0,0,1-7,7H8a7,7,0,0,1-7-7V8.35a7,7,0,0,1,7-7H88.21m0-1H8a8,8,0,0,0-8,8v162.2a8,8,0,0,0,8,8H132.67a8,8,0,0,0,8-8V52.47a8,8,0,0,0-2.37-5.68L93.84,2.67A8,8,0,0,0,88.21.35Z"/></g><path id="shadow" class="cls-3" d="M139.3,50.81l-45.11,2.5a5,5,0,0,1-5.27-5.12L90.17,1.72Z"/><path id="corner" class="cls-4" d="M140.67,49.52H99.5a8,8,0,0,1-8-8V.35Z"/><rect id="panel" class="cls-5" x="9.56" y="89.81" width="121.55" height="45.07" rx="5.07" ry="5.07"/><path id="shadow-2" data-name="shadow" class="cls-6" d="M13.29,124.34a6.84,6.84,0,0,1-3.73-1.11V126a6.92,6.92,0,0,0,6.92,6.93H124.19a6.92,6.92,0,0,0,6.92-6.93l.22-17.32C127.24,125,13.29,124.34,13.29,124.34Z"/><path id="css-2" data-name="css" class="cls-1" d="M48.16,100.46a3.41,3.41,0,0,0-3.32-1.74,3.37,3.37,0,0,0-2.19.71,4.82,4.82,0,0,0-1.35,2.31,19.56,19.56,0,0,0-.69,4.18q-.2,2.58-.19,6.32a61.54,61.54,0,0,0,.27,6.44,14.58,14.58,0,0,0,.83,3.81A3.53,3.53,0,0,0,43,124.31a4.12,4.12,0,0,0,2,.46,4.85,4.85,0,0,0,1.75-.31,3,3,0,0,0,1.4-1.28,8.41,8.41,0,0,0,.93-2.71,24.57,24.57,0,0,0,.34-4.59h7.08a31.08,31.08,0,0,1-.44,5.4,12.21,12.21,0,0,1-1.64,4.48,8.22,8.22,0,0,1-3.4,3,12.86,12.86,0,0,1-5.68,1.08,13.41,13.41,0,0,1-6.34-1.28,8.58,8.58,0,0,1-3.61-3.69,16,16,0,0,1-1.62-5.75,73.39,73.39,0,0,1,0-14.72,16.09,16.09,0,0,1,1.62-5.78,9,9,0,0,1,3.61-3.76,12.78,12.78,0,0,1,6.34-1.35,12.37,12.37,0,0,1,6,1.22,8.38,8.38,0,0,1,3.27,3.13,10.81,10.81,0,0,1,1.35,4.08,33.53,33.53,0,0,1,.27,4.1H49.07A12.73,12.73,0,0,0,48.16,100.46Zm18,18.91a10.94,10.94,0,0,0,.2,2.23,3.88,3.88,0,0,0,.73,1.7,3.64,3.64,0,0,0,1.45,1.08,5.85,5.85,0,0,0,2.29.39,4.52,4.52,0,0,0,2.92-1,4,4,0,0,0,1.31-3.27,5.9,5.9,0,0,0-.32-2,4.1,4.1,0,0,0-1.06-1.55,7.3,7.3,0,0,0-1.94-1.25,26.36,26.36,0,0,0-3-1.16,25.56,25.56,0,0,1-4.08-1.72,10.94,10.94,0,0,1-2.87-2.19,7.77,7.77,0,0,1-1.7-2.9,12.25,12.25,0,0,1-.54-3.81q0-5.2,2.9-7.77t8-2.55a17.54,17.54,0,0,1,4.35.51,9.28,9.28,0,0,1,3.44,1.67,7.93,7.93,0,0,1,2.26,3,10.43,10.43,0,0,1,.81,4.31v1H74.54a7,7,0,0,0-.89-3.86,3.26,3.26,0,0,0-3-1.35,5,5,0,0,0-2,.34,3.3,3.3,0,0,0-1.25.91,3.24,3.24,0,0,0-.64,1.3,7,7,0,0,0-.17,1.53,5.08,5.08,0,0,0,.69,2.73,6.27,6.27,0,0,0,3,2l5.46,2.36a16.69,16.69,0,0,1,3.29,1.84,9.06,9.06,0,0,1,2,2.07,6.8,6.8,0,0,1,1.06,2.43,14,14,0,0,1,.29,3q0,5.55-3.22,8.09t-9,2.53q-6,0-8.58-2.61C60,125.5,59.1,123,59.1,119.76v-1.43h7.08Zm25.51,0a11.7,11.7,0,0,0,.2,2.23,3.88,3.88,0,0,0,.74,1.7,3.57,3.57,0,0,0,1.45,1.08,5.85,5.85,0,0,0,2.29.39,4.53,4.53,0,0,0,2.92-1,4,4,0,0,0,1.3-3.27,5.68,5.68,0,0,0-.32-2,4,4,0,0,0-1-1.55,7.21,7.21,0,0,0-2-1.25,26.12,26.12,0,0,0-3-1.16,25.56,25.56,0,0,1-4.08-1.72,10.83,10.83,0,0,1-2.88-2.19,7.75,7.75,0,0,1-1.69-2.9,12.25,12.25,0,0,1-.54-3.81c0-3.47,1-6.06,2.9-7.77s4.59-2.55,8-2.55a17.42,17.42,0,0,1,4.35.51,9.25,9.25,0,0,1,3.45,1.67,7.93,7.93,0,0,1,2.26,3,10.43,10.43,0,0,1,.81,4.31v1h-6.79a7,7,0,0,0-.88-3.86,3.27,3.27,0,0,0-3-1.35,4.9,4.9,0,0,0-2,.34A3.3,3.3,0,0,0,93,100a3.11,3.11,0,0,0-.64,1.3,6.47,6.47,0,0,0-.17,1.53,5.17,5.17,0,0,0,.68,2.73,6.32,6.32,0,0,0,2.95,2l5.46,2.36a16.8,16.8,0,0,1,3.3,1.84,9.06,9.06,0,0,1,2,2.07,6.78,6.78,0,0,1,1,2.43,13.38,13.38,0,0,1,.3,3q0,5.55-3.22,8.09t-9,2.53q-6,0-8.58-2.61c-1.72-1.73-2.59-4.23-2.59-7.47v-1.43h7.08Z"/></g></g></g></svg>