<svg xmlns="http://www.w3.org/2000/svg" viewBox="0 0 299.53 349.23"><defs><style>.cls-1{fill:#83b3cf;}.cls-2{fill:#b9d1e1;}.cls-3,.cls-4{font-size:24px;font-family:Helvetica-Bold, Helvetica;font-weight:700;}.cls-3{fill:#243138;}.cls-4{fill:#7f7e7e;}.cls-5,.cls-6,.cls-7,.cls-8,.cls-9{fill:none;stroke:#7f7f7f;stroke-miterlimit:10;stroke-width:3px;}.cls-6{stroke-dasharray:2.96 2.96;}.cls-7{stroke-dasharray:2.73 2.73;}.cls-8{stroke-dasharray:2.84 2.84;}.cls-9{stroke-dasharray:3.03 3.03;}</style></defs><title>folder-structure</title><g id="Layer_2" data-name="Layer 2"><g id="files"><path id="back" class="cls-1" d="M57.38,6.75h-27L23.62,0H6.75A6.77,6.77,0,0,0,0,6.75v40.5A6.77,6.77,0,0,0,6.75,54H59.06a5,5,0,0,0,5.06-5.06V13.5A6.76,6.76,0,0,0,57.38,6.75Z"/><path id="front" class="cls-2" d="M64.46,16.88H19.07a6.69,6.69,0,0,0-6.58,5.56L6.75,54H60.24a6.68,6.68,0,0,0,6.58-5.57L71,24.81A6.67,6.67,0,0,0,64.46,16.88Z"/><text class="cls-3" transform="translate(89.76 41.69)">website</text><text class="cls-4" transform="translate(89.76 94.69)">index.html</text><path id="back-2" data-name="back" class="cls-1" d="M152.38,126.75h-27L118.62,120H101.75A6.77,6.77,0,0,0,95,126.75v40.5a6.77,6.77,0,0,0,6.75,6.75h52.31a5,5,0,0,0,5.06-5.06V133.5A6.76,6.76,0,0,0,152.38,126.75Z"/><path id="front-2" data-name="front" class="cls-2" d="M159.46,136.88H114.07a6.69,6.69,0,0,0-6.58,5.56L101.75,174h53.49a6.7,6.7,0,0,0,6.59-5.57L166,144.81A6.67,6.67,0,0,0,159.46,136.88Z"/><text class="cls-3" transform="translate(184.76 161.69)">css</text><text class="cls-4" transform="translate(184.76 214.69)">styles.css</text><path id="back-3" data-name="back" class="cls-1" d="M152.38,249.75h-27L118.62,243H101.75A6.77,6.77,0,0,0,95,249.75v40.5a6.77,6.77,0,0,0,6.75,6.75h52.31a5,5,0,0,0,5.06-5.06V256.5A6.76,6.76,0,0,0,152.38,249.75Z"/><path id="front-3" data-name="front" class="cls-2" d="M159.46,259.88H114.07a6.69,6.69,0,0,0-6.58,5.56L101.75,297h53.49a6.7,6.7,0,0,0,6.59-5.57L166,267.81A6.67,6.67,0,0,0,159.46,259.88Z"/><text class="cls-3" transform="translate(183.76 284.69)">images</text><text class="cls-4" transform="translate(184.76 337.69)">bg.jpg</text><line class="cls-5" x1="85.36" y1="89.01" x2="83.86" y2="89.01"/><line class="cls-6" x1="80.9" y1="89.01" x2="34.98" y2="89.01"/><polyline class="cls-5" points="33.5 89.01 32 89.01 32 87.51"/><line class="cls-7" x1="32" y1="84.78" x2="32" y2="58.86"/><line class="cls-5" x1="32" y1="57.5" x2="32" y2="56"/><line class="cls-5" x1="32" y1="94" x2="32" y2="95.5"/><line class="cls-8" x1="32" y1="98.34" x2="32" y2="148.09"/><polyline class="cls-5" points="32 149.51 32 151.01 33.5 151.01"/><line class="cls-6" x1="36.46" y1="151.01" x2="82.38" y2="151.01"/><line class="cls-5" x1="83.86" y1="151.01" x2="85.36" y2="151.01"/><line class="cls-5" x1="129" y1="176" x2="129" y2="177.5"/><line class="cls-7" x1="129" y1="180.23" x2="129" y2="206.15"/><polyline class="cls-5" points="129 207.51 129 209.01 130.5 209.01"/><line class="cls-6" x1="133.46" y1="209.01" x2="179.38" y2="209.01"/><line class="cls-5" x1="180.86" y1="209.01" x2="182.36" y2="209.01"/><line class="cls-5" x1="129" y1="298" x2="129" y2="299.5"/><line class="cls-7" x1="129" y1="302.23" x2="129" y2="328.15"/><polyline class="cls-5" points="129 329.51 129 331.01 130.5 331.01"/><line class="cls-6" x1="133.46" y1="331.01" x2="179.38" y2="331.01"/><line class="cls-5" x1="180.86" y1="331.01" x2="182.36" y2="331.01"/><line class="cls-5" x1="32" y1="155" x2="32" y2="156.5"/><line class="cls-9" x1="32" y1="159.53" x2="32" y2="267"/><polyline class="cls-5" points="32 268.51 32 270.01 33.5 270.01"/><line class="cls-6" x1="36.46" y1="270.01" x2="82.38" y2="270.01"/><line class="cls-5" x1="83.86" y1="270.01" x2="85.36" y2="270.01"/></g></g></svg>
