<svg xmlns="http://www.w3.org/2000/svg" viewBox="0 0 141.02 178.55"><defs><style>.cls-1,.cls-4{fill:#fff;}.cls-2{fill:#757575;}.cls-3{fill:#ccc;}.cls-4{stroke:#757575;stroke-linejoin:bevel;}.cls-5{fill:#e44d26;stroke:#cc3f23;stroke-miterlimit:10;}.cls-6{fill:#cc3f23;}</style></defs><title>html_1</title><g id="Layer_2" data-name="Layer 2"><g id="svg"><g id="html"><g id="page"><path class="cls-1" d="M8,178.05a7.5,7.5,0,0,1-7.5-7.5V8.35A7.51,7.51,0,0,1,8,.85H88.21A7.48,7.48,0,0,1,93.49,3L138,47.14a7.56,7.56,0,0,1,2.22,5.33V170.55a7.51,7.51,0,0,1-7.5,7.5Z"/><path class="cls-2" d="M88.21,1.35a7,7,0,0,1,4.93,2L137.6,47.5a7,7,0,0,1,2.07,5V170.55a7,7,0,0,1-7,7H8a7,7,0,0,1-7-7V8.35a7,7,0,0,1,7-7H88.21m0-1H8a8,8,0,0,0-8,8v162.2a8,8,0,0,0,8,8H132.67a8,8,0,0,0,8-8V52.47a8,8,0,0,0-2.37-5.68L93.84,2.67A8,8,0,0,0,88.21.35Z"/></g><path id="shadow" class="cls-3" d="M139.3,50.81l-45.11,2.5a5,5,0,0,1-5.27-5.12L90.17,1.72Z"/><path id="corner" class="cls-4" d="M140.67,49.52H99.5a8,8,0,0,1-8-8V.35Z"/><rect id="panel" class="cls-5" x="9.56" y="89.81" width="121.55" height="45.07" rx="5.07" ry="5.07"/><path id="shadow-2" data-name="shadow" class="cls-6" d="M13.41,124.49a6.93,6.93,0,0,1-3.74-1.11v2.72A6.92,6.92,0,0,0,16.59,133H124.3a6.92,6.92,0,0,0,6.92-6.92l.23-17.32C127.35,125.17,13.41,124.49,13.41,124.49Z"/><path id="html-2" data-name="html" class="cls-1" d="M24.83,94.19v13.43h8.26V94.19h7.08V129.3H33.09V113.71H24.83V129.3H17.75V94.19ZM65.64,100H58v29.3H50.89V100H43.22V94.19H65.64Zm13.72-5.81,5,24.78h.1l5.06-24.78H100V129.3H93.52v-28h-.1l-6.25,28h-5.5l-6.25-28h-.1v28H68.83V94.19Zm25.71,0h7.08V123.5h12.54v5.8H105.07Z"/></g></g></g></svg>