<svg xmlns="http://www.w3.org/2000/svg" xmlns:xlink="http://www.w3.org/1999/xlink" viewBox="0 0 491.52 372.6"><defs><style>.cls-1,.cls-7{fill:#ccc;}.cls-1,.cls-2,.cls-3,.cls-8{stroke:#757575;}.cls-1,.cls-11,.cls-12,.cls-14,.cls-15,.cls-2,.cls-3,.cls-5,.cls-9{stroke-miterlimit:10;}.cls-2,.cls-6,.cls-8{fill:#fff;}.cls-3{fill:#ddd;}.cls-4{fill:#757575;}.cls-5,.cls-9{stroke:#d8b91e;}.cls-5{fill:url(#linear-gradient);}.cls-8{stroke-linejoin:bevel;}.cls-9{fill:#f7df1e;}.cls-10{fill:#d8bd1d;}.cls-11{stroke:#0b3951;fill:url(#linear-gradient-2);}.cls-12{fill:#1572b6;stroke:#126293;}.cls-13{fill:#126293;}.cls-14{stroke:#7f2617;fill:url(#linear-gradient-3);}.cls-15{fill:#e44d26;stroke:#cc3f23;}.cls-16{fill:#cc3f23;}</style><linearGradient id="linear-gradient" x1="328.34" y1="196.39" x2="445.35" y2="196.39" gradientUnits="userSpaceOnUse"><stop offset="0" stop-color="#f7df1e"/><stop offset="1" stop-color="#d8bd1d"/></linearGradient><linearGradient id="linear-gradient-2" x1="248.25" y1="243.1" x2="248.25" y2="138.1" gradientUnits="userSpaceOnUse"><stop offset="0" stop-color="#126293"/><stop offset="1" stop-color="#1572b6"/></linearGradient><linearGradient id="linear-gradient-3" x1="45.82" y1="195.5" x2="162.83" y2="195.5" gradientUnits="userSpaceOnUse"><stop offset="0" stop-color="#e44d26"/><stop offset="1" stop-color="#cc3f23"/></linearGradient></defs><title>htmlcssjs_1</title><g id="Layer_2" data-name="Layer 2"><g id="svg"><g id="browser"><path id="toolbar" class="cls-1" d="M360.08,257.1V240.58a9.48,9.48,0,0,0-9.48-9.48h-210a9.49,9.49,0,0,0-9.48,9.48V257.1Z"/><path id="window" class="cls-2" d="M131.08,257.1V362.62a9.48,9.48,0,0,0,9.48,9.48h210a9.47,9.47,0,0,0,9.48-9.48V257.1Z"/><rect id="url" class="cls-3" x="204.58" y="237.73" width="142" height="14" rx="2" ry="2"/><polygon id="forward" class="cls-4" points="155.25 238.73 146.09 245.09 155.27 250.72 155.25 238.73"/><polygon id="back" class="cls-4" points="163.91 250.72 173.08 244.37 163.9 238.73 163.91 250.72"/><circle id="refresh" class="cls-4" cx="189.58" cy="244.73" r="5.5"/></g><polygon id="arrow-js" class="cls-5" points="445.35 152.34 351.92 152.34 335.46 194.16 328.34 183.49 328.34 240.43 392.4 208.4 364.82 208.4 445.35 152.34"/><g id="js"><g id="page"><path class="cls-6" d="M358.5,178.05a7.5,7.5,0,0,1-7.5-7.5V8.35a7.51,7.51,0,0,1,7.5-7.5h80.21A7.48,7.48,0,0,1,444,3l44.46,44.11a7.56,7.56,0,0,1,2.22,5.33V170.55a7.51,7.51,0,0,1-7.5,7.5Z"/><path class="cls-4" d="M438.71,1.35a7,7,0,0,1,4.93,2L488.1,47.5a7,7,0,0,1,2.07,5V170.55a7,7,0,0,1-7,7H358.5a7,7,0,0,1-7-7V8.35a7,7,0,0,1,7-7h80.21m0-1H358.5a8,8,0,0,0-8,8v162.2a8,8,0,0,0,8,8H483.17a8,8,0,0,0,8-8V52.47a8,8,0,0,0-2.37-5.68L444.34,2.67A8,8,0,0,0,438.71.35Z"/></g><path id="shadow" class="cls-7" d="M489.8,50.81l-45.11,2.5a5,5,0,0,1-5.27-5.12l1.25-46.47Z"/><path id="corner" class="cls-8" d="M491.17,49.52H450a8,8,0,0,1-8-8V.35Z"/><rect id="panel" class="cls-9" x="360.06" y="89.81" width="121.55" height="45.07" rx="5.07" ry="5.07"/><path id="shadow-2" data-name="shadow" class="cls-10" d="M363.79,125.34a6.84,6.84,0,0,1-3.73-1.11V127a6.92,6.92,0,0,0,6.92,6.93H474.69a6.92,6.92,0,0,0,6.92-6.93l.22-17.32C477.74,126,363.79,125.34,363.79,125.34Z"/><path id="js-2" data-name="js" class="cls-6" d="M417.29,119.46q0,5.61-2.6,8t-8,2.39a12,12,0,0,1-4.59-.76,6.84,6.84,0,0,1-2.86-2.17,8.25,8.25,0,0,1-1.45-3.27,19.12,19.12,0,0,1-.39-3.93v-1.52h6.49v1.08a10.56,10.56,0,0,0,.61,4.15,3.06,3.06,0,0,0,5.07,0,10.56,10.56,0,0,0,.61-4.15V94.19h7.08Zm10.33-.09a11.74,11.74,0,0,0,.19,2.23,3.88,3.88,0,0,0,.74,1.7,3.64,3.64,0,0,0,1.45,1.08,5.85,5.85,0,0,0,2.29.39,4.52,4.52,0,0,0,2.92-1,4,4,0,0,0,1.31-3.27,5.9,5.9,0,0,0-.32-2,4.1,4.1,0,0,0-1.06-1.55,7.3,7.3,0,0,0-1.94-1.25,27.13,27.13,0,0,0-3-1.16,25.56,25.56,0,0,1-4.08-1.72,10.94,10.94,0,0,1-2.87-2.19,7.77,7.77,0,0,1-1.7-2.9,12.25,12.25,0,0,1-.54-3.81q0-5.2,2.9-7.77c1.93-1.7,4.59-2.55,8-2.55a17.56,17.56,0,0,1,4.36.51,9.28,9.28,0,0,1,3.44,1.67,7.93,7.93,0,0,1,2.26,3,10.43,10.43,0,0,1,.81,4.31v1H436a7,7,0,0,0-.89-3.86,3.26,3.26,0,0,0-2.95-1.35,4.94,4.94,0,0,0-2,.34,3.3,3.3,0,0,0-1.25.91,3.24,3.24,0,0,0-.64,1.3,7,7,0,0,0-.17,1.53,5.08,5.08,0,0,0,.69,2.73,6.27,6.27,0,0,0,2.95,2l5.46,2.36a16.69,16.69,0,0,1,3.29,1.84,9.06,9.06,0,0,1,2,2.07,6.8,6.8,0,0,1,1.06,2.43,14,14,0,0,1,.29,3q0,5.55-3.22,8.09t-9,2.53q-6,0-8.58-2.61c-1.72-1.73-2.58-4.23-2.58-7.47v-1.43h7.08Z"/></g><polygon id="arrow-css" class="cls-11" points="263.38 195.05 266.94 138.1 229.57 138.1 233.13 195.05 212.22 190.6 248.03 243.1 284.29 190.6 263.38 195.05"/><g id="css"><g id="page-2" data-name="page"><path class="cls-6" d="M183.25,178.05a7.5,7.5,0,0,1-7.5-7.5V8.35a7.51,7.51,0,0,1,7.5-7.5h80.21A7.48,7.48,0,0,1,268.74,3L313.2,47.14a7.56,7.56,0,0,1,2.22,5.33V170.55a7.51,7.51,0,0,1-7.5,7.5Z"/><path class="cls-4" d="M263.46,1.35a7,7,0,0,1,4.93,2L312.85,47.5a7,7,0,0,1,2.07,5V170.55a7,7,0,0,1-7,7H183.25a7,7,0,0,1-7-7V8.35a7,7,0,0,1,7-7h80.21m0-1H183.25a8,8,0,0,0-8,8v162.2a8,8,0,0,0,8,8H307.92a8,8,0,0,0,8-8V52.47a8,8,0,0,0-2.37-5.68L269.09,2.67A8,8,0,0,0,263.46.35Z"/></g><path id="shadow-3" data-name="shadow" class="cls-7" d="M314.55,50.81l-45.11,2.5a5,5,0,0,1-5.27-5.12l1.25-46.47Z"/><path id="corner-2" data-name="corner" class="cls-8" d="M315.92,49.52H274.75a8,8,0,0,1-8-8V.35Z"/><rect id="panel-2" data-name="panel" class="cls-12" x="184.81" y="89.81" width="121.55" height="45.07" rx="5.07" ry="5.07"/><path id="shadow-4" data-name="shadow" class="cls-13" d="M188.54,124.34a6.84,6.84,0,0,1-3.73-1.11V126a6.92,6.92,0,0,0,6.92,6.93H299.44a6.92,6.92,0,0,0,6.92-6.93l.22-17.32C302.49,125,188.54,124.34,188.54,124.34Z"/><path id="css-2" data-name="css" class="cls-6" d="M223.41,100.46a3.41,3.41,0,0,0-3.32-1.74,3.37,3.37,0,0,0-2.19.71,4.82,4.82,0,0,0-1.35,2.31,19.56,19.56,0,0,0-.69,4.18q-.2,2.58-.19,6.32a61.54,61.54,0,0,0,.27,6.44,14.58,14.58,0,0,0,.83,3.81,3.48,3.48,0,0,0,1.43,1.82,4.12,4.12,0,0,0,2,.46,4.85,4.85,0,0,0,1.75-.31,3,3,0,0,0,1.4-1.28,8.41,8.41,0,0,0,.93-2.71,24.57,24.57,0,0,0,.34-4.59h7.08a31.08,31.08,0,0,1-.44,5.4,12,12,0,0,1-1.65,4.48,8.13,8.13,0,0,1-3.39,3,12.86,12.86,0,0,1-5.68,1.08,13.38,13.38,0,0,1-6.34-1.28,8.58,8.58,0,0,1-3.61-3.69,16,16,0,0,1-1.62-5.75,73.39,73.39,0,0,1,0-14.72,16.09,16.09,0,0,1,1.62-5.78,9,9,0,0,1,3.61-3.76,12.76,12.76,0,0,1,6.34-1.35,12.37,12.37,0,0,1,6,1.22,8.38,8.38,0,0,1,3.27,3.13,10.81,10.81,0,0,1,1.35,4.08,33.53,33.53,0,0,1,.27,4.1h-7.08A12.73,12.73,0,0,0,223.41,100.46Zm18,18.91a11.74,11.74,0,0,0,.19,2.23,4,4,0,0,0,.74,1.7,3.64,3.64,0,0,0,1.45,1.08,5.85,5.85,0,0,0,2.29.39,4.52,4.52,0,0,0,2.92-1,4,4,0,0,0,1.31-3.27,5.9,5.9,0,0,0-.32-2,4.1,4.1,0,0,0-1.06-1.55,7.3,7.3,0,0,0-1.94-1.25,27.13,27.13,0,0,0-3-1.16,25.56,25.56,0,0,1-4.08-1.72,10.94,10.94,0,0,1-2.87-2.19,7.77,7.77,0,0,1-1.7-2.9,12.25,12.25,0,0,1-.54-3.81q0-5.2,2.9-7.77t8-2.55a17.54,17.54,0,0,1,4.35.51,9.28,9.28,0,0,1,3.44,1.67,7.93,7.93,0,0,1,2.26,3,10.43,10.43,0,0,1,.81,4.31v1h-6.78a7,7,0,0,0-.89-3.86,3.26,3.26,0,0,0-3-1.35,4.94,4.94,0,0,0-2,.34,3.3,3.3,0,0,0-1.25.91,3.24,3.24,0,0,0-.64,1.3,7,7,0,0,0-.17,1.53,5.08,5.08,0,0,0,.69,2.73,6.27,6.27,0,0,0,2.95,2l5.45,2.36a16.51,16.51,0,0,1,3.3,1.84,9.06,9.06,0,0,1,2,2.07,6.8,6.8,0,0,1,1.06,2.43,14,14,0,0,1,.29,3q0,5.55-3.22,8.09t-9,2.53q-6,0-8.58-2.61c-1.72-1.73-2.58-4.23-2.58-7.47v-1.43h7.08Zm25.51,0a11.7,11.7,0,0,0,.2,2.23,3.88,3.88,0,0,0,.74,1.7,3.57,3.57,0,0,0,1.45,1.08,5.82,5.82,0,0,0,2.29.39,4.53,4.53,0,0,0,2.92-1,4,4,0,0,0,1.3-3.27,5.68,5.68,0,0,0-.32-2,4,4,0,0,0-1-1.55,7.37,7.37,0,0,0-2-1.25,26.12,26.12,0,0,0-3-1.16,25.56,25.56,0,0,1-4.08-1.72,10.83,10.83,0,0,1-2.88-2.19,7.75,7.75,0,0,1-1.69-2.9,12.25,12.25,0,0,1-.54-3.81c0-3.47,1-6.06,2.9-7.77s4.59-2.55,8-2.55a17.42,17.42,0,0,1,4.35.51A9.13,9.13,0,0,1,279,95.69a7.85,7.85,0,0,1,2.27,3,10.43,10.43,0,0,1,.81,4.31v1H275.3a7,7,0,0,0-.88-3.86,3.27,3.27,0,0,0-2.95-1.35,4.9,4.9,0,0,0-2,.34,3.3,3.3,0,0,0-1.25.91,3.11,3.11,0,0,0-.64,1.3,6.47,6.47,0,0,0-.17,1.53,5.17,5.17,0,0,0,.68,2.73,6.32,6.32,0,0,0,2.95,2l5.46,2.36a16.8,16.8,0,0,1,3.3,1.84,9.06,9.06,0,0,1,2,2.07,6.78,6.78,0,0,1,1.05,2.43,13.38,13.38,0,0,1,.3,3c0,3.7-1.08,6.4-3.22,8.09s-5.14,2.53-9,2.53q-6,0-8.58-2.61c-1.73-1.73-2.59-4.23-2.59-7.47v-1.43h7.08Z"/></g><polygon id="arrow-html" class="cls-14" points="45.82 151.45 139.25 151.45 155.71 193.27 162.83 182.59 162.83 239.54 98.76 207.51 126.35 207.51 45.82 151.45"/><g id="html"><g id="page-3" data-name="page"><path class="cls-6" d="M8,178.05a7.5,7.5,0,0,1-7.5-7.5V8.35A7.51,7.51,0,0,1,8,.85H88.21A7.48,7.48,0,0,1,93.49,3L138,47.14a7.56,7.56,0,0,1,2.22,5.33V170.55a7.51,7.51,0,0,1-7.5,7.5Z"/><path class="cls-4" d="M88.21,1.35a7,7,0,0,1,4.93,2L137.6,47.5a7,7,0,0,1,2.07,5V170.55a7,7,0,0,1-7,7H8a7,7,0,0,1-7-7V8.35a7,7,0,0,1,7-7H88.21m0-1H8a8,8,0,0,0-8,8v162.2a8,8,0,0,0,8,8H132.67a8,8,0,0,0,8-8V52.47a8,8,0,0,0-2.37-5.68L93.84,2.67A8,8,0,0,0,88.21.35Z"/></g><path id="shadow-5" data-name="shadow" class="cls-7" d="M139.3,50.81l-45.11,2.5a5,5,0,0,1-5.27-5.12L90.17,1.72Z"/><path id="corner-3" data-name="corner" class="cls-8" d="M140.67,49.52H99.5a8,8,0,0,1-8-8V.35Z"/><rect id="panel-3" data-name="panel" class="cls-15" x="9.56" y="89.81" width="121.55" height="45.07" rx="5.07" ry="5.07"/><path id="shadow-6" data-name="shadow" class="cls-16" d="M13.41,124.49a6.93,6.93,0,0,1-3.74-1.11v2.72A6.92,6.92,0,0,0,16.59,133H124.3a6.92,6.92,0,0,0,6.92-6.92l.23-17.32C127.35,125.17,13.41,124.49,13.41,124.49Z"/><path id="html-2" data-name="html" class="cls-6" d="M24.83,94.19v13.43h8.26V94.19h7.08V129.3H33.09V113.71H24.83V129.3H17.75V94.19ZM65.64,100H58v29.3H50.89V100H43.22V94.19H65.64Zm13.72-5.81,5,24.78h.1l5.06-24.78H100V129.3H93.52v-28h-.1l-6.25,28h-5.5l-6.25-28h-.1v28H68.83V94.19Zm25.71,0h7.08V123.5h12.54v5.8H105.07Z"/></g></g></g></svg>