<svg xmlns="http://www.w3.org/2000/svg" viewBox="0 0 141.02 178.55"><defs><style>.cls-1,.cls-4{fill:#fff;}.cls-2{fill:#757575;}.cls-3{fill:#ccc;}.cls-4{stroke:#757575;stroke-linejoin:bevel;}.cls-5{fill:#f7df1e;stroke:#d8b91e;stroke-miterlimit:10;}.cls-6{fill:#d8bd1d;}</style></defs><title>js_1</title><g id="Layer_2" data-name="Layer 2"><g id="svg"><g id="js"><g id="page"><path class="cls-1" d="M8,178.05a7.5,7.5,0,0,1-7.5-7.5V8.35A7.51,7.51,0,0,1,8,.85H88.21A7.48,7.48,0,0,1,93.49,3L138,47.14a7.56,7.56,0,0,1,2.22,5.33V170.55a7.51,7.51,0,0,1-7.5,7.5Z"/><path class="cls-2" d="M88.21,1.35a7,7,0,0,1,4.93,2L137.6,47.5a7,7,0,0,1,2.07,5V170.55a7,7,0,0,1-7,7H8a7,7,0,0,1-7-7V8.35a7,7,0,0,1,7-7H88.21m0-1H8a8,8,0,0,0-8,8v162.2a8,8,0,0,0,8,8H132.67a8,8,0,0,0,8-8V52.47a8,8,0,0,0-2.37-5.68L93.84,2.67A8,8,0,0,0,88.21.35Z"/></g><path id="shadow" class="cls-3" d="M139.3,50.81l-45.11,2.5a5,5,0,0,1-5.27-5.12L90.17,1.72Z"/><path id="corner" class="cls-4" d="M140.67,49.52H99.5a8,8,0,0,1-8-8V.35Z"/><rect id="panel" class="cls-5" x="9.56" y="89.81" width="121.55" height="45.07" rx="5.07" ry="5.07"/><path id="shadow-2" data-name="shadow" class="cls-6" d="M13.29,125.34a6.84,6.84,0,0,1-3.73-1.11V127a6.92,6.92,0,0,0,6.92,6.93H124.19a6.92,6.92,0,0,0,6.92-6.93l.22-17.32C127.24,126,13.29,125.34,13.29,125.34Z"/><path id="js-2" data-name="js" class="cls-1" d="M66.79,119.46q0,5.61-2.6,8t-8,2.39a12,12,0,0,1-4.59-.76,6.84,6.84,0,0,1-2.86-2.17,8.25,8.25,0,0,1-1.45-3.27,19.12,19.12,0,0,1-.39-3.93v-1.52h6.49v1.08a10.56,10.56,0,0,0,.61,4.15,2.5,2.5,0,0,0,2.54,1.35,2.49,2.49,0,0,0,2.53-1.35,10.56,10.56,0,0,0,.61-4.15V94.19h7.08Zm10.33-.09a10.94,10.94,0,0,0,.2,2.23,3.88,3.88,0,0,0,.73,1.7,3.64,3.64,0,0,0,1.45,1.08,5.85,5.85,0,0,0,2.29.39,4.52,4.52,0,0,0,2.92-1A4,4,0,0,0,86,120.45a5.9,5.9,0,0,0-.32-2,4.1,4.1,0,0,0-1.06-1.55,7.3,7.3,0,0,0-1.94-1.25,26.36,26.36,0,0,0-3-1.16,25.56,25.56,0,0,1-4.08-1.72,10.94,10.94,0,0,1-2.87-2.19,7.77,7.77,0,0,1-1.7-2.9,12.25,12.25,0,0,1-.54-3.81q0-5.2,2.9-7.77t8-2.55a17.54,17.54,0,0,1,4.35.51,9.28,9.28,0,0,1,3.44,1.67,7.82,7.82,0,0,1,2.26,3,10.43,10.43,0,0,1,.81,4.31v1H85.48a7,7,0,0,0-.89-3.86,3.26,3.26,0,0,0-3-1.35,5,5,0,0,0-2,.34,3.3,3.3,0,0,0-1.25.91,3.24,3.24,0,0,0-.64,1.3,7,7,0,0,0-.17,1.53,5.08,5.08,0,0,0,.69,2.73,6.27,6.27,0,0,0,3,2l5.46,2.36A16.69,16.69,0,0,1,90,111.77a9.06,9.06,0,0,1,2,2.07,6.8,6.8,0,0,1,1.06,2.43,14,14,0,0,1,.29,3q0,5.55-3.22,8.09t-9,2.53q-6,0-8.58-2.61C70.9,125.5,70,123,70,119.76v-1.43h7.08Z"/></g></g></g></svg>