<svg xmlns="http://www.w3.org/2000/svg" viewBox="0 0 731 167"><defs><style>.cls-1{fill:#e8e8e8;}.cls-2{fill:#999;}.cls-3{fill:#3d3d3d;}.cls-4{fill:#fff;}.cls-5{fill:#ee203b;}.cls-6{fill:none;stroke:#ee203b;stroke-miterlimit:10;}</style></defs><title>tagattributes</title><g id="Layer_2" data-name="Layer 2"><g id="Layer_1-2" data-name="Layer 1"><g id="svg"><rect class="cls-1" width="731" height="167"/><rect class="cls-2" x="211.5" y="56.8" width="454" height="52.39"/><rect class="cls-3" x="8.13" y="57" width="203.38" height="52"/><path id="tagname" class="cls-4" d="M30.29,82.7l17.06-8.28v3.24L33.82,84V84l13.53,6.33v3.21L30.29,85.29ZM57.18,71v5h4.21v3.31H57.18v7.74c0,2.12.58,3.24,2.27,3.24a6.51,6.51,0,0,0,1.73-.22l.07,3.38a9.5,9.5,0,0,1-3.21.44,5.13,5.13,0,0,1-3.81-1.44c-.94-1-1.37-2.6-1.37-4.9V79.35H50.34V76h2.52v-4Zm17.6,22.54-.28-1.95h-.11A6.51,6.51,0,0,1,69.21,94a5.2,5.2,0,0,1-5.51-5.22c0-4.42,3.92-6.66,10.4-6.62v-.29c0-1.15-.47-3.06-3.56-3.06a9.26,9.26,0,0,0-4.72,1.3L65,77.19a12.6,12.6,0,0,1,6.33-1.55c5.62,0,7.24,3.56,7.24,7.38v6.33a28.21,28.21,0,0,0,.25,4.22ZM74.21,85c-3.13-.07-6.12.61-6.12,3.27a2.32,2.32,0,0,0,2.52,2.52,3.58,3.58,0,0,0,3.45-2.41,3.1,3.1,0,0,0,.15-1Zm25.2-9c-.07,1.18-.15,2.62-.15,5V91c0,3.67-.75,6.3-2.59,8a10.12,10.12,0,0,1-6.77,2.12,12.43,12.43,0,0,1-6.11-1.4l1-3.35a10.52,10.52,0,0,0,5.11,1.33c2.88,0,5-1.51,5-5.29V90.87h-.07a6,6,0,0,1-5.12,2.59c-4.35,0-7.45-3.6-7.45-8.57,0-5.76,3.75-9.25,8-9.25a5.51,5.51,0,0,1,5.07,2.74h.08L95.56,76Zm-4.57,7a4.22,4.22,0,0,0-.15-1.19A3.69,3.69,0,0,0,91.09,79c-2.48,0-4.32,2.16-4.32,5.73,0,3,1.51,5.4,4.29,5.4a3.79,3.79,0,0,0,3.6-2.67,8.22,8.22,0,0,0,.18-1.58Zm17-1.8c0-2,0-3.71-.14-5.22h3.88l.22,2.62h.11a6.32,6.32,0,0,1,5.58-3c3.06,0,6.22,2,6.22,7.52V93.57h-4.42v-9.9c0-2.52-.94-4.43-3.35-4.43a3.72,3.72,0,0,0-3.46,2.59,4.66,4.66,0,0,0-.18,1.44v10.3h-4.46Zm30.63,12.31-.28-1.95h-.11A6.52,6.52,0,0,1,136.88,94a5.2,5.2,0,0,1-5.5-5.22c0-4.42,3.92-6.66,10.4-6.62v-.29c0-1.15-.47-3.06-3.56-3.06a9.26,9.26,0,0,0-4.72,1.3l-.86-2.88A12.6,12.6,0,0,1,139,75.64c5.62,0,7.24,3.56,7.24,7.38v6.33a28.21,28.21,0,0,0,.25,4.22ZM141.89,85c-3.13-.07-6.12.61-6.12,3.27a2.32,2.32,0,0,0,2.52,2.52,3.58,3.58,0,0,0,3.45-2.41,3.1,3.1,0,0,0,.15-1Zm9.18-3.74c0-2,0-3.71-.15-5.22h3.82l.18,2.59H155a6.06,6.06,0,0,1,5.4-3,5.07,5.07,0,0,1,4.86,3.24h.07a6.69,6.69,0,0,1,2.16-2.2,5.88,5.88,0,0,1,3.53-1c2.91,0,5.86,2,5.86,7.6V93.57h-4.32V83.88c0-2.91-1-4.64-3.13-4.64a3.36,3.36,0,0,0-3.09,2.34,6.21,6.21,0,0,0-.22,1.48V93.57h-4.32V83.42c0-2.45-1-4.18-3-4.18a3.46,3.46,0,0,0-3.17,2.52,3.8,3.8,0,0,0-.25,1.44V93.57h-4.32ZM184.91,86c.11,3.17,2.59,4.54,5.4,4.54a13.3,13.3,0,0,0,4.86-.79l.64,3.06a16.53,16.53,0,0,1-6.11,1.08c-5.69,0-9-3.5-9-8.86,0-4.86,3-9.43,8.57-9.43s7.56,4.68,7.56,8.53a10.86,10.86,0,0,1-.15,1.87Zm7.7-3.09c0-1.62-.68-4.29-3.63-4.29-2.74,0-3.89,2.49-4.07,4.29Z"/><rect class="cls-3" x="665.5" y="57" width="57.38" height="52"/><path id="close" class="cls-4" d="M704.31,85.36l-17.06,8.21V90.36L701,84V84l-13.75-6.34v-3.2l17.06,8.2Z"/><path id="attribute" class="cls-4" d="M255.65,93.57l-.29-1.95h-.11A6.49,6.49,0,0,1,250.07,94a5.2,5.2,0,0,1-5.51-5.22c0-4.42,3.92-6.66,10.4-6.62v-.29c0-1.15-.46-3.06-3.56-3.06a9.2,9.2,0,0,0-4.71,1.3l-.87-2.88a12.65,12.65,0,0,1,6.34-1.55c5.61,0,7.23,3.56,7.23,7.38v6.33a28.21,28.21,0,0,0,.25,4.22ZM255.07,85c-3.13-.07-6.12.61-6.12,3.27a2.32,2.32,0,0,0,2.52,2.52,3.59,3.59,0,0,0,3.46-2.41,3.08,3.08,0,0,0,.14-1Zm14-14v5h4.21v3.31h-4.21v7.74c0,2.12.58,3.24,2.27,3.24a6.45,6.45,0,0,0,1.73-.22l.07,3.38a9.48,9.48,0,0,1-3.2.44,5.14,5.14,0,0,1-3.82-1.44c-.93-1-1.37-2.6-1.37-4.9V79.35h-2.52V76h2.52v-4Zm12.82,0v5h4.21v3.31h-4.21v7.74c0,2.12.57,3.24,2.27,3.24a6.36,6.36,0,0,0,1.72-.22l.08,3.38a9.5,9.5,0,0,1-3.21.44A5.1,5.1,0,0,1,279,92.49c-.94-1-1.37-2.6-1.37-4.9V79.35h-2.52V76h2.52v-4Zm7.74,10.66c0-2.38,0-4.07-.15-5.65h3.86l.14,3.34h.14a5.24,5.24,0,0,1,4.79-3.74,4.84,4.84,0,0,1,1.05.11v4.17a6.37,6.37,0,0,0-1.3-.14,3.91,3.91,0,0,0-4,3.35,7.71,7.71,0,0,0-.14,1.37v9.07h-4.43Zm17.71-10.55a2.49,2.49,0,1,1-2.48-2.41A2.35,2.35,0,0,1,307.38,71.14Zm-4.72,22.43V76h4.47V93.57Zm9.26,0c.07-1.19.14-3.14.14-4.94V68h4.43V78.45h.07a6.35,6.35,0,0,1,5.62-2.81c4.28,0,7.34,3.56,7.3,8.89,0,6.3-4,9.43-8,9.43a6,6,0,0,1-5.55-3h-.07l-.21,2.63Zm4.57-7.24a4.51,4.51,0,0,0,.11,1,4.07,4.07,0,0,0,3.92,3.09c2.77,0,4.46-2.23,4.46-5.76,0-3.09-1.47-5.61-4.42-5.61a4.15,4.15,0,0,0-3.93,3.24,5.4,5.4,0,0,0-.14,1.15Zm32.5,2c0,2.09.08,3.82.15,5.26h-3.89L345,90.9H345A6.32,6.32,0,0,1,339.35,94c-3.21,0-6.12-1.91-6.12-7.63V76h4.43v9.54c0,2.91.93,4.78,3.27,4.78A3.73,3.73,0,0,0,344.31,88a3.93,3.93,0,0,0,.26-1.37V76H349ZM359,71v5h4.21v3.31H359v7.74c0,2.12.58,3.24,2.27,3.24a6.36,6.36,0,0,0,1.72-.22l.08,3.38a9.5,9.5,0,0,1-3.21.44,5.12,5.12,0,0,1-3.81-1.44c-.94-1-1.37-2.6-1.37-4.9V79.35H352.2V76h2.52v-4ZM369.7,86c.1,3.17,2.59,4.54,5.39,4.54a13.22,13.22,0,0,0,4.86-.79l.65,3.06a16.54,16.54,0,0,1-6.12,1.08c-5.69,0-9-3.5-9-8.86,0-4.86,2.95-9.43,8.57-9.43s7.55,4.68,7.55,8.53a11.1,11.1,0,0,1-.14,1.87ZM377.4,83c0-1.62-.69-4.29-3.64-4.29-2.73,0-3.88,2.49-4.06,4.29ZM393,81.26c0-2,0-3.71-.14-5.22h3.89l.21,2.62H397a6.34,6.34,0,0,1,5.58-3c3.06,0,6.23,2,6.23,7.52V93.57H404.4v-9.9c0-2.52-.94-4.43-3.35-4.43a3.7,3.7,0,0,0-3.45,2.59,4.37,4.37,0,0,0-.19,1.44v10.3H393Zm30.64,12.31-.29-1.95h-.11A6.51,6.51,0,0,1,418,94a5.2,5.2,0,0,1-5.51-5.22c0-4.42,3.92-6.66,10.4-6.62v-.29c0-1.15-.47-3.06-3.56-3.06a9.26,9.26,0,0,0-4.72,1.3l-.86-2.88a12.6,12.6,0,0,1,6.33-1.55c5.62,0,7.24,3.56,7.24,7.38v6.33a28.21,28.21,0,0,0,.25,4.22ZM423,85c-3.13-.07-6.12.61-6.12,3.27a2.32,2.32,0,0,0,2.52,2.52,3.6,3.6,0,0,0,3.46-2.41,3.4,3.4,0,0,0,.14-1Zm9.18-3.74c0-2,0-3.71-.14-5.22h3.81l.18,2.59h.11a6.06,6.06,0,0,1,5.4-3,5.07,5.07,0,0,1,4.86,3.24h.07a6.69,6.69,0,0,1,2.16-2.2,5.88,5.88,0,0,1,3.53-1c2.91,0,5.87,2,5.87,7.6V93.57h-4.32V83.88c0-2.91-1-4.64-3.14-4.64a3.37,3.37,0,0,0-3.09,2.34,6.21,6.21,0,0,0-.22,1.48V93.57H443V83.42c0-2.45-1-4.18-3-4.18a3.46,3.46,0,0,0-3.17,2.52,3.8,3.8,0,0,0-.25,1.44V93.57h-4.32ZM466,86c.11,3.17,2.59,4.54,5.4,4.54a13.26,13.26,0,0,0,4.86-.79l.65,3.06a16.54,16.54,0,0,1-6.12,1.08c-5.69,0-9-3.5-9-8.86,0-4.86,3-9.43,8.57-9.43s7.56,4.68,7.56,8.53a11.1,11.1,0,0,1-.14,1.87Zm7.7-3.09c0-1.62-.68-4.29-3.63-4.29-2.74,0-3.89,2.49-4.07,4.29Zm14.62-1.26V78.84h18.57v2.85Zm0,7.27V86.15h18.57V89Zm33.41-20L521,78.16h-2.63l-.72-9.25Zm6.22,0-.72,9.25h-2.62l-.72-9.25ZM535.33,76l2.84,8.89a43.87,43.87,0,0,1,1.19,4.39h.11c.32-1.44.72-2.81,1.18-4.39L543.43,76h4.68l-6.7,17.53h-4.36L530.54,76Zm25.3,17.53-.28-1.95h-.11A6.52,6.52,0,0,1,555.05,94a5.2,5.2,0,0,1-5.5-5.22c0-4.42,3.92-6.66,10.4-6.62v-.29c0-1.15-.47-3.06-3.56-3.06a9.26,9.26,0,0,0-4.72,1.3l-.86-2.88a12.6,12.6,0,0,1,6.33-1.55c5.62,0,7.24,3.56,7.24,7.38v6.33a28.21,28.21,0,0,0,.25,4.22ZM560.06,85c-3.13-.07-6.12.61-6.12,3.27a2.32,2.32,0,0,0,2.52,2.52,3.58,3.58,0,0,0,3.45-2.41,3.1,3.1,0,0,0,.15-1Zm9.18-17h4.46V93.57h-4.46Zm25.13,20.3c0,2.09.07,3.82.14,5.26h-3.89l-.21-2.67h-.08A6.32,6.32,0,0,1,584.72,94c-3.2,0-6.12-1.91-6.12-7.63V76H583v9.54c0,2.91.93,4.78,3.27,4.78A3.74,3.74,0,0,0,589.69,88a4.18,4.18,0,0,0,.25-1.37V76h4.43Zm8.1-2.27c.1,3.17,2.59,4.54,5.4,4.54a13.21,13.21,0,0,0,4.85-.79l.65,3.06a16.54,16.54,0,0,1-6.12,1.08c-5.68,0-9-3.5-9-8.86,0-4.86,2.95-9.43,8.57-9.43s7.56,4.68,7.56,8.53A10.86,10.86,0,0,1,614.2,86Zm7.7-3.09c0-1.62-.68-4.29-3.63-4.29-2.74,0-3.89,2.49-4.07,4.29Zm11-14-.72,9.25h-2.63l-.72-9.25Zm6.22,0-.72,9.25h-2.62l-.72-9.25Z"/><path id="start-tag" class="cls-5" d="M322.66,148.37a6.54,6.54,0,0,0,3,.84c1.3,0,1.87-.53,1.87-1.3s-.48-1.2-1.92-1.7c-2.28-.79-3.24-2-3.21-3.41,0-2.06,1.7-3.67,4.41-3.67a6.87,6.87,0,0,1,3.1.69l-.58,2.09a5.21,5.21,0,0,0-2.47-.67c-1.05,0-1.63.5-1.63,1.22s.55,1.11,2,1.64c2.11.77,3.1,1.85,3.12,3.57,0,2.12-1.66,3.65-4.75,3.65a7.58,7.58,0,0,1-3.56-.81Zm13.66-12.31v3.33h2.81v2.21h-2.81v5.16c0,1.42.38,2.16,1.51,2.16a4.46,4.46,0,0,0,1.15-.14l0,2.25a6.42,6.42,0,0,1-2.14.29,3.4,3.4,0,0,1-2.54-1,4.62,4.62,0,0,1-.91-3.26v-5.5h-1.68v-2.21h1.68v-2.64Zm11.73,15-.19-1.29h-.07a4.34,4.34,0,0,1-3.46,1.56,3.47,3.47,0,0,1-3.67-3.48c0-3,2.62-4.45,6.94-4.42v-.19c0-.77-.31-2-2.38-2a6.21,6.21,0,0,0-3.14.86l-.58-1.92a8.4,8.4,0,0,1,4.23-1c3.74,0,4.82,2.37,4.82,4.92v4.22a18.71,18.71,0,0,0,.17,2.81Zm-.38-5.71c-2.09-.05-4.08.41-4.08,2.18a1.54,1.54,0,0,0,1.68,1.68,2.38,2.38,0,0,0,2.3-1.61,1.85,1.85,0,0,0,.1-.64Zm6.12-2.21c0-1.58,0-2.71-.1-3.77h2.57l.1,2.23h.09a3.5,3.5,0,0,1,3.2-2.49,3,3,0,0,1,.69.07V142a4.73,4.73,0,0,0-.86-.09,2.6,2.6,0,0,0-2.64,2.23,4.87,4.87,0,0,0-.1.91v6.05h-2.95Zm12.6-7.1v3.33h2.81v2.21h-2.81v5.16c0,1.42.38,2.16,1.51,2.16a4.46,4.46,0,0,0,1.15-.14l.05,2.25a6.42,6.42,0,0,1-2.14.29,3.4,3.4,0,0,1-2.54-1,4.67,4.67,0,0,1-.91-3.26v-5.5h-1.68v-2.21h1.68v-2.64Zm13.63,0v3.33h2.81v2.21H380v5.16c0,1.42.38,2.16,1.51,2.16a4.4,4.4,0,0,0,1.15-.14l.05,2.25a6.4,6.4,0,0,1-2.13.29,3.43,3.43,0,0,1-2.55-1,4.67,4.67,0,0,1-.91-3.26v-5.5h-1.68v-2.21h1.68v-2.64Zm11.74,15-.2-1.29h-.07a4.34,4.34,0,0,1-3.45,1.56,3.48,3.48,0,0,1-3.68-3.48c0-3,2.62-4.45,6.94-4.42v-.19c0-.77-.31-2-2.38-2a6.21,6.21,0,0,0-3.14.86l-.58-1.92a8.43,8.43,0,0,1,4.23-1c3.74,0,4.82,2.37,4.82,4.92v4.22a18.71,18.71,0,0,0,.17,2.81Zm-.39-5.71c-2.09-.05-4.08.41-4.08,2.18a1.55,1.55,0,0,0,1.68,1.68,2.4,2.4,0,0,0,2.31-1.61,2.1,2.1,0,0,0,.09-.64Zm16.8-6c-.05.79-.09,1.75-.09,3.36v6.63c0,2.45-.51,4.2-1.73,5.3a6.74,6.74,0,0,1-4.51,1.42,8.18,8.18,0,0,1-4.08-.94l.64-2.23a7.13,7.13,0,0,0,3.41.89c1.92,0,3.36-1,3.36-3.53v-1h-.05a3.94,3.94,0,0,1-3.4,1.73c-2.91,0-5-2.4-5-5.71,0-3.84,2.49-6.17,5.3-6.17a3.69,3.69,0,0,1,3.39,1.82h0l.12-1.56Zm-3.05,4.68a3,3,0,0,0-.09-.79,2.45,2.45,0,0,0-2.4-1.9c-1.66,0-2.88,1.44-2.88,3.82,0,2,1,3.6,2.85,3.6A2.51,2.51,0,0,0,405,147a4.72,4.72,0,0,0,.12-1.06Z"/><path id="bracket" class="cls-6" d="M595.46,22h68.42V55M280,22H211.88V55"/><path id="bracket-2" data-name="bracket" class="cls-6" d="M722.5,114v33H423.17M8.5,114v33H307.33"/><path id="optional" class="cls-5" d="M293.06,18.87c0-1.34,0-2.47-.09-3.48h2.54l.12,1.73h.07a4,4,0,0,1,3.6-2,3.36,3.36,0,0,1,3.24,2.16h0A4.5,4.5,0,0,1,304,15.82a3.94,3.94,0,0,1,2.35-.69c1.95,0,3.91,1.32,3.91,5.06v6.89h-2.88V20.62c0-1.94-.67-3.09-2.08-3.09a2.25,2.25,0,0,0-2.07,1.56,4.37,4.37,0,0,0-.14,1v7h-2.88V20.31c0-1.63-.65-2.78-2-2.78a2.3,2.3,0,0,0-2.11,1.68,2.52,2.52,0,0,0-.17,1v6.91h-2.88Zm27.05,8.21-.19-1.29h-.07a4.36,4.36,0,0,1-3.46,1.56,3.47,3.47,0,0,1-3.67-3.48c0-3,2.61-4.45,6.93-4.42v-.19c0-.77-.31-2-2.37-2a6.22,6.22,0,0,0-3.15.86l-.57-1.92a8.36,8.36,0,0,1,4.22-1c3.75,0,4.83,2.37,4.83,4.92v4.22a18.86,18.86,0,0,0,.16,2.81Zm-.38-5.71c-2.09-.05-4.08.41-4.08,2.18a1.54,1.54,0,0,0,1.68,1.68,2.38,2.38,0,0,0,2.3-1.61,2.13,2.13,0,0,0,.1-.64Zm7.72-6,2.12,6.27c.24.72.48,1.61.64,2.28h.08c.19-.67.4-1.54.62-2.31l1.82-6.24h3.17l-2.93,8c-1.6,4.37-2.68,6.31-4.08,7.51a5.92,5.92,0,0,1-3.09,1.52l-.68-2.5a4.89,4.89,0,0,0,1.73-.82,5.08,5.08,0,0,0,1.61-1.84,1.22,1.22,0,0,0,.19-.53,1.28,1.28,0,0,0-.16-.58l-4.28-10.73Zm15.27,11.69c0-.79.09-2.09.09-3.29V10h3v7h0a4.24,4.24,0,0,1,3.75-1.87c2.85,0,4.89,2.37,4.87,5.93,0,4.2-2.66,6.29-5.31,6.29a4,4,0,0,1-3.69-2h-.05l-.14,1.75Zm3-4.82a3,3,0,0,0,.07.69A2.72,2.72,0,0,0,348.45,25c1.85,0,3-1.49,3-3.84,0-2.07-1-3.75-2.95-3.75a2.78,2.78,0,0,0-2.62,2.16,3.46,3.46,0,0,0-.09.77Zm13.29-.2c.07,2.12,1.73,3,3.6,3a8.7,8.7,0,0,0,3.24-.53l.43,2a10.93,10.93,0,0,1-4.08.72c-3.79,0-6-2.33-6-5.9,0-3.24,2-6.29,5.71-6.29s5,3.12,5,5.69a6.86,6.86,0,0,1-.1,1.24ZM364.2,20c0-1.08-.46-2.86-2.43-2.86A2.89,2.89,0,0,0,359.06,20Zm21.48,1.13a5.79,5.79,0,0,1-6,6.22,5.65,5.65,0,0,1-5.86-6c0-3.84,2.52-6.19,6.05-6.19S385.68,17.58,385.68,21.13Zm-8.81.12c0,2.26,1.1,4,2.9,4s2.86-1.66,2.86-4c0-1.82-.82-3.91-2.83-3.91S376.87,19.3,376.87,21.25Zm11.35-2c0-1.54-.05-2.78-.1-3.89h2.6l.14,1.8h.05a4.54,4.54,0,0,1,4-2.06c2.68,0,4.92,2.3,4.92,5.95,0,4.23-2.67,6.27-5.33,6.27a3.85,3.85,0,0,1-3.29-1.56h-.05v6h-2.95Zm2.95,2.91a3.1,3.1,0,0,0,.1.81,2.67,2.67,0,0,0,2.59,2.07c1.87,0,3-1.56,3-3.87,0-2.06-1-3.74-2.91-3.74a2.75,2.75,0,0,0-2.64,2.18,2.79,2.79,0,0,0-.12.74Zm14.59-10.13v3.33h2.81V17.6h-2.81v5.16c0,1.42.39,2.16,1.52,2.16a4.52,4.52,0,0,0,1.15-.14l.05,2.25a6.47,6.47,0,0,1-2.14.29,3.4,3.4,0,0,1-2.54-1,4.62,4.62,0,0,1-.92-3.26V17.6H401.2V15.39h1.68V12.75Zm8.31.07a1.56,1.56,0,0,1-1.68,1.58,1.54,1.54,0,0,1-1.63-1.58,1.66,1.66,0,0,1,3.31,0Zm-3.15,14.95V15.39h3V27.08Zm17.38-5.95c0,4.3-3,6.22-6,6.22a5.66,5.66,0,0,1-5.86-6c0-3.84,2.52-6.19,6.05-6.19S428.3,17.58,428.3,21.13Zm-8.81.12c0,2.26,1.11,4,2.91,4s2.85-1.66,2.85-4c0-1.82-.81-3.91-2.83-3.91S419.49,19.3,419.49,21.25Zm11.35-2.38c0-1.34,0-2.47-.09-3.48h2.59l.14,1.75h.08a4.2,4.2,0,0,1,3.72-2c2,0,4.15,1.32,4.15,5v6.93h-2.95v-6.6c0-1.68-.63-2.95-2.24-2.95a2.48,2.48,0,0,0-2.3,1.73,2.87,2.87,0,0,0-.12,1v6.86h-3Zm20.43,8.21-.19-1.29H451a4.34,4.34,0,0,1-3.45,1.56,3.47,3.47,0,0,1-3.67-3.48c0-3,2.61-4.45,6.93-4.42v-.19c0-.77-.31-2-2.37-2a6.22,6.22,0,0,0-3.15.86l-.58-1.92a8.43,8.43,0,0,1,4.23-1c3.74,0,4.82,2.37,4.82,4.92v4.22a18.71,18.71,0,0,0,.17,2.81Zm-.39-5.71c-2.09-.05-4.08.41-4.08,2.18a1.55,1.55,0,0,0,1.68,1.68,2.39,2.39,0,0,0,2.31-1.61,2.1,2.1,0,0,0,.09-.64ZM457,10h3v17h-3Zm22.49,11.09c0,4.3-3,6.22-6,6.22a5.66,5.66,0,0,1-5.86-6c0-3.84,2.52-6.19,6.05-6.19S479.49,17.58,479.49,21.13Zm-8.81.12c0,2.26,1.11,4,2.91,4s2.85-1.66,2.85-4c0-1.82-.81-3.91-2.83-3.91S470.68,19.3,470.68,21.25ZM482,19.16c0-1.58,0-2.71-.09-3.77h2.57l.09,2.23h.1a3.48,3.48,0,0,1,3.19-2.49,3,3,0,0,1,.7.07V18a4.85,4.85,0,0,0-.87-.09,2.61,2.61,0,0,0-2.64,2.23A6,6,0,0,0,485,21v6h-3Zm13.76,0c0-1.58,0-2.71-.1-3.77h2.57l.09,2.23h.1a3.49,3.49,0,0,1,3.19-2.49,3,3,0,0,1,.7.07V18a4.85,4.85,0,0,0-.87-.09,2.61,2.61,0,0,0-2.64,2.23,6,6,0,0,0-.09.91v6h-2.95Zm10.53,2.9c.07,2.12,1.73,3,3.6,3a8.7,8.7,0,0,0,3.24-.53l.43,2a10.93,10.93,0,0,1-4.08.72c-3.79,0-6-2.33-6-5.9,0-3.24,2-6.29,5.71-6.29s5,3.12,5,5.69a8.22,8.22,0,0,1-.09,1.24ZM511.46,20c0-1.08-.46-2.86-2.43-2.86A2.89,2.89,0,0,0,506.32,20Zm13.1,5.47h0a4,4,0,0,1-3.62,1.88c-2.62,0-4.9-2.28-4.9-5.93,0-4.28,2.74-6.29,5.24-6.29a3.65,3.65,0,0,1,3.4,1.8l0,0,.07-1.56h2.86c-.05,1.06-.1,2.16-.1,3.39v13h-3Zm0-5.25a3.32,3.32,0,0,0-.07-.72,2.58,2.58,0,0,0-2.52-2c-1.9,0-3,1.6-3,3.81S520,25,521.9,25a2.59,2.59,0,0,0,2.52-1.95,3.14,3.14,0,0,0,.14-.91Zm16.71,3.36c0,1.39,0,2.54.09,3.5h-2.59l-.14-1.77h0a4.24,4.24,0,0,1-3.75,2c-2.13,0-4.08-1.28-4.08-5.09V15.39h3v6.36c0,1.95.62,3.2,2.18,3.2a2.49,2.49,0,0,0,2.26-1.59,2.79,2.79,0,0,0,.16-.91V15.39h3Zm6.45-11.45a1.66,1.66,0,1,1-1.66-1.61A1.58,1.58,0,0,1,547.72,12.13Zm-3.14,14.95V15.39h3V27.08Zm6.26-7.92c0-1.58,0-2.71-.09-3.77h2.56l.1,2.23h.1a3.48,3.48,0,0,1,3.19-2.49,2.93,2.93,0,0,1,.69.07V18a4.73,4.73,0,0,0-.86-.09,2.6,2.6,0,0,0-2.64,2.23,4.87,4.87,0,0,0-.1.91v6h-2.95Zm10.54,2.9c.07,2.12,1.73,3,3.6,3a8.7,8.7,0,0,0,3.24-.53l.43,2a11,11,0,0,1-4.08.72c-3.79,0-6-2.33-6-5.9,0-3.24,2-6.29,5.72-6.29s5,3.12,5,5.69a6.86,6.86,0,0,1-.1,1.24ZM566.51,20a2.51,2.51,0,0,0-2.42-2.86A2.89,2.89,0,0,0,561.38,20Zm16.06-10V23.79c0,1.2,0,2.5.1,3.29H580l-.12-1.85h0A4.21,4.21,0,0,1,576,27.35c-2.78,0-5-2.38-5-6,0-3.91,2.42-6.24,5.23-6.24a3.73,3.73,0,0,1,3.29,1.53h0V10Zm-3,10.23a3.94,3.94,0,0,0-.08-.77A2.57,2.57,0,0,0,577,17.41c-1.89,0-3,1.68-3,3.86S575.11,25,577,25a2.6,2.6,0,0,0,2.54-2.09,3.33,3.33,0,0,0,.1-.86Z"/></g></g></g></svg>