<svg xmlns="http://www.w3.org/2000/svg" viewBox="0 0 731 167">
  <defs>
    <style>
      .bg{fill:#e8e8e8;}
      .bg-contents{fill:#999;}
      .bg-tags{fill:#3d3d3d;}
      .bracket{fill:none;stroke:#ee203b;stroke-miterlimit:10;}
      .fg-tag{fill:#fff;}
      .fg-contents{fill:#dcdcdc;}
      .fg-titles{fill:#ee203b;}
    </style>
  </defs>
  <g id="tag-structure">
    <rect class="bg" width="731" height="167"/>
    <rect class="bg-contents" x="8.13" y="56.8" width="714.75" height="52.39"/>
    <rect class="bg-tags" x="8.13" y="57" width="238" height="52"/>
    <rect class="bg-tags" x="484.88" y="57" width="238" height="52"/>
    <path id="bracket" class="bracket" d="M178.5,19h65.75V52M72.17,19H8.25V52"/>
    <path id="bracket-2" data-name="bracket" class="bracket" d="M653.83,18h68.42V51M554.33,18H486.25V51"/>
    <path id="bracket-3" data-name="bracket" class="bracket" d="M722.5,112v33H415.17M8.5,112v33H315.33"/>
    <path id="start-tag-name" class="fg-tag" d="M33.47,82.7l17.06-8.28v3.24L37,84V84l13.53,6.33v3.21L33.47,85.29ZM60.36,71v5h4.21v3.31H60.36v7.74c0,2.12.58,3.24,2.27,3.24a6.45,6.45,0,0,0,1.73-.22l.07,3.38a9.48,9.48,0,0,1-3.2.44,5.14,5.14,0,0,1-3.82-1.44c-.93-1-1.37-2.6-1.37-4.9V79.35H53.52V76H56v-4ZM78,93.57l-.29-1.95h-.11A6.51,6.51,0,0,1,72.39,94a5.2,5.2,0,0,1-5.51-5.22c0-4.42,3.92-6.66,10.4-6.62v-.29c0-1.15-.47-3.06-3.56-3.06A9.26,9.26,0,0,0,69,80.07l-.86-2.88a12.65,12.65,0,0,1,6.34-1.55c5.61,0,7.23,3.56,7.23,7.38v6.33A28.21,28.21,0,0,0,82,93.57ZM77.39,85c-3.13-.07-6.12.61-6.12,3.27a2.32,2.32,0,0,0,2.52,2.52,3.6,3.6,0,0,0,3.46-2.41,3.4,3.4,0,0,0,.14-1Zm25.2-9c-.07,1.18-.14,2.62-.14,5V91c0,3.67-.76,6.3-2.6,8a10.11,10.11,0,0,1-6.76,2.12A12.44,12.44,0,0,1,87,99.69l1-3.35a10.58,10.58,0,0,0,5.11,1.33c2.88,0,5-1.51,5-5.29V90.87H98a5.94,5.94,0,0,1-5.11,2.59c-4.36,0-7.45-3.6-7.45-8.57,0-5.76,3.74-9.25,8-9.25a5.53,5.53,0,0,1,5.08,2.74h.07L98.74,76Zm-4.57,7a4.22,4.22,0,0,0-.15-1.19A3.67,3.67,0,0,0,94.27,79C91.79,79,90,81.18,90,84.75c0,3,1.51,5.4,4.28,5.4a3.79,3.79,0,0,0,3.6-2.67A7.5,7.5,0,0,0,98,85.9Zm17-1.8c0-2,0-3.71-.14-5.22h3.88l.22,2.62h.11a6.32,6.32,0,0,1,5.58-3c3.06,0,6.22,2,6.22,7.52V93.57h-4.42v-9.9c0-2.52-.94-4.43-3.35-4.43a3.73,3.73,0,0,0-3.46,2.59,4.66,4.66,0,0,0-.18,1.44v10.3H115Zm30.64,12.31-.29-1.95h-.11A6.51,6.51,0,0,1,140.07,94a5.2,5.2,0,0,1-5.51-5.22c0-4.42,3.92-6.66,10.4-6.62v-.29c0-1.15-.47-3.06-3.56-3.06a9.26,9.26,0,0,0-4.72,1.3l-.86-2.88a12.6,12.6,0,0,1,6.33-1.55c5.62,0,7.24,3.56,7.24,7.38v6.33a28.21,28.21,0,0,0,.25,4.22ZM145.07,85c-3.13-.07-6.12.61-6.12,3.27a2.32,2.32,0,0,0,2.52,2.52,3.6,3.6,0,0,0,3.46-2.41,3.4,3.4,0,0,0,.14-1Zm9.18-3.74c0-2,0-3.71-.14-5.22h3.81l.18,2.59h.11a6.06,6.06,0,0,1,5.4-3,5.07,5.07,0,0,1,4.86,3.24h.07a6.69,6.69,0,0,1,2.16-2.2,5.88,5.88,0,0,1,3.53-1c2.91,0,5.87,2,5.87,7.6V93.57h-4.32V83.88c0-2.91-1-4.64-3.14-4.64a3.37,3.37,0,0,0-3.09,2.34,6.21,6.21,0,0,0-.22,1.48V93.57H165V83.42c0-2.45-1-4.18-3-4.18a3.46,3.46,0,0,0-3.17,2.52,3.8,3.8,0,0,0-.25,1.44V93.57h-4.32ZM188.09,86c.11,3.17,2.59,4.54,5.4,4.54a13.26,13.26,0,0,0,4.86-.79l.65,3.06a16.54,16.54,0,0,1-6.12,1.08c-5.69,0-9-3.5-9-8.86,0-4.86,2.95-9.43,8.57-9.43S200,80.32,200,84.17a11.1,11.1,0,0,1-.14,1.87Zm7.7-3.09c0-1.62-.68-4.29-3.63-4.29-2.74,0-3.89,2.49-4.07,4.29Zm24.81,2.41-17.07,8.21V90.36L217.28,84V84l-13.75-6.34v-3.2l17.07,8.2Z"/>
    <path id="end-tag-name" class="fg-tag" d="M504.07,82.7l17.06-8.28v3.24L507.59,84V84l13.54,6.33v3.21l-17.06-8.28ZM523.79,95l8.79-26.1h3.09L526.89,95Zm19.48-24v5h4.21v3.31h-4.21v7.74c0,2.12.57,3.24,2.27,3.24a6.36,6.36,0,0,0,1.72-.22l.08,3.38a9.5,9.5,0,0,1-3.21.44,5.1,5.1,0,0,1-3.81-1.44c-.94-1-1.37-2.6-1.37-4.9V79.35h-2.52V76H539v-4Zm17.6,22.54-.29-1.95h-.1A6.52,6.52,0,0,1,555.29,94a5.2,5.2,0,0,1-5.5-5.22c0-4.42,3.92-6.66,10.4-6.62v-.29c0-1.15-.47-3.06-3.57-3.06a9.25,9.25,0,0,0-4.71,1.3L551,77.19a12.68,12.68,0,0,1,6.34-1.55c5.62,0,7.24,3.56,7.24,7.38v6.33a28.21,28.21,0,0,0,.25,4.22ZM560.3,85c-3.14-.07-6.12.61-6.12,3.27a2.32,2.32,0,0,0,2.52,2.52,3.58,3.58,0,0,0,3.45-2.41,3.1,3.1,0,0,0,.15-1Zm25.2-9c-.08,1.18-.15,2.62-.15,5V91c0,3.67-.75,6.3-2.59,8a10.15,10.15,0,0,1-6.77,2.12,12.47,12.47,0,0,1-6.12-1.4l1-3.35A10.52,10.52,0,0,0,576,97.67c2.88,0,5-1.51,5-5.29V90.87h-.08a5.91,5.91,0,0,1-5.11,2.59c-4.35,0-7.45-3.6-7.45-8.57,0-5.76,3.75-9.25,8-9.25a5.52,5.52,0,0,1,5.07,2.74h.07l.18-2.34Zm-4.58,7a4.22,4.22,0,0,0-.14-1.19,3.69,3.69,0,0,0-3.6-2.85c-2.48,0-4.32,2.16-4.32,5.73,0,3,1.51,5.4,4.28,5.4a3.77,3.77,0,0,0,3.6-2.67,7.5,7.5,0,0,0,.18-1.58Zm17-1.8c0-2,0-3.71-.15-5.22h3.89l.22,2.62h.1a6.35,6.35,0,0,1,5.58-3c3.06,0,6.23,2,6.23,7.52V93.57h-4.43v-9.9c0-2.52-.93-4.43-3.34-4.43a3.72,3.72,0,0,0-3.46,2.59,4.66,4.66,0,0,0-.18,1.44v10.3h-4.46Zm30.63,12.31-.29-1.95h-.1A6.52,6.52,0,0,1,623,94a5.21,5.21,0,0,1-5.51-5.22c0-4.42,3.93-6.66,10.41-6.62v-.29c0-1.15-.47-3.06-3.57-3.06a9.25,9.25,0,0,0-4.71,1.3l-.87-2.88a12.68,12.68,0,0,1,6.34-1.55c5.62,0,7.23,3.56,7.23,7.38v6.33a28.06,28.06,0,0,0,.26,4.22ZM628,85c-3.14-.07-6.12.61-6.12,3.27a2.32,2.32,0,0,0,2.52,2.52,3.58,3.58,0,0,0,3.45-2.41,3.1,3.1,0,0,0,.15-1Zm9.18-3.74c0-2,0-3.71-.15-5.22h3.82l.18,2.59h.11a6,6,0,0,1,5.4-3,5.07,5.07,0,0,1,4.86,3.24h.07a6.69,6.69,0,0,1,2.16-2.2,5.85,5.85,0,0,1,3.52-1c2.92,0,5.87,2,5.87,7.6V93.57h-4.32V83.88c0-2.91-1-4.64-3.13-4.64a3.39,3.39,0,0,0-3.1,2.34,6.77,6.77,0,0,0-.21,1.48V93.57h-4.32V83.42c0-2.45-1-4.18-3-4.18a3.45,3.45,0,0,0-3.17,2.52,3.8,3.8,0,0,0-.25,1.44V93.57h-4.32ZM671,86c.1,3.17,2.59,4.54,5.39,4.54a13.22,13.22,0,0,0,4.86-.79l.65,3.06a16.54,16.54,0,0,1-6.12,1.08c-5.68,0-9-3.5-9-8.86,0-4.86,3-9.43,8.57-9.43s7.55,4.68,7.55,8.53a11.1,11.1,0,0,1-.14,1.87ZM678.7,83c0-1.62-.69-4.29-3.64-4.29-2.73,0-3.88,2.49-4.06,4.29Zm24.8,2.41-17.06,8.21V90.36L700.19,84V84l-13.75-6.34v-3.2l17.06,8.2Z"/>
    <path id="contents" class="fg-contents" d="M312.24,93a12.91,12.91,0,0,1-5,.9c-5.47,0-9-3.5-9-8.93,0-5.26,3.6-9.36,9.76-9.36a11,11,0,0,1,4.28.83l-.79,3.31a7.86,7.86,0,0,0-3.35-.68c-3.38,0-5.4,2.48-5.36,5.68,0,3.6,2.34,5.65,5.36,5.65a8.63,8.63,0,0,0,3.49-.68ZM332,84.64c0,6.44-4.54,9.32-9,9.32-5,0-8.79-3.42-8.79-9,0-5.76,3.78-9.29,9.07-9.29S332,79.31,332,84.64Zm-13.21.18c0,3.38,1.65,5.94,4.35,5.94,2.52,0,4.28-2.49,4.28-6,0-2.74-1.22-5.87-4.24-5.87S318.83,81.9,318.83,84.82Zm17-3.56c0-2,0-3.71-.14-5.22h3.89l.21,2.62h.11a6.34,6.34,0,0,1,5.58-3c3.06,0,6.23,2,6.23,7.52V93.57H347.3v-9.9c0-2.52-.94-4.43-3.35-4.43a3.72,3.72,0,0,0-3.45,2.59,4.38,4.38,0,0,0-.18,1.44v10.3h-4.47ZM361.52,71v5h4.21v3.31h-4.21v7.74c0,2.12.58,3.24,2.27,3.24a6.51,6.51,0,0,0,1.73-.22l.07,3.38a9.48,9.48,0,0,1-3.2.44,5.14,5.14,0,0,1-3.82-1.44c-.94-1-1.37-2.6-1.37-4.9V79.35h-2.52V76h2.52v-4Zm10.66,15c.11,3.17,2.59,4.54,5.4,4.54a13.3,13.3,0,0,0,4.86-.79l.64,3.06A16.54,16.54,0,0,1,377,93.93c-5.68,0-9-3.5-9-8.86,0-4.86,2.95-9.43,8.57-9.43s7.56,4.68,7.56,8.53a10.86,10.86,0,0,1-.15,1.87Zm7.7-3.09c0-1.62-.68-4.29-3.64-4.29-2.73,0-3.88,2.49-4.06,4.29Zm7.92-1.69c0-2,0-3.71-.14-5.22h3.88l.22,2.62h.11a6.32,6.32,0,0,1,5.58-3c3.06,0,6.23,2,6.23,7.52V93.57h-4.43v-9.9c0-2.52-.94-4.43-3.35-4.43a3.7,3.7,0,0,0-3.45,2.59,4.38,4.38,0,0,0-.18,1.44v10.3H387.8ZM413.47,71v5h4.21v3.31h-4.21v7.74c0,2.12.57,3.24,2.27,3.24a6.36,6.36,0,0,0,1.72-.22l.08,3.38a9.5,9.5,0,0,1-3.21.44,5.12,5.12,0,0,1-3.81-1.44c-.94-1-1.37-2.6-1.37-4.9V79.35h-2.52V76h2.52v-4ZM421,89.5a9.92,9.92,0,0,0,4.5,1.26c1.95,0,2.81-.79,2.81-2s-.72-1.8-2.88-2.55c-3.42-1.19-4.86-3.06-4.82-5.11,0-3.1,2.55-5.51,6.62-5.51a10.27,10.27,0,0,1,4.64,1L431,79.82a7.8,7.8,0,0,0-3.71-1c-1.58,0-2.44.75-2.44,1.83s.82,1.66,3,2.45c3.17,1.15,4.65,2.77,4.68,5.37,0,3.16-2.48,5.47-7.12,5.47a11.31,11.31,0,0,1-5.33-1.23Z"/>
    <path id="start-tag" class="fg-titles" d="M84.22,22.37a6.61,6.61,0,0,0,3,.84c1.3,0,1.88-.53,1.88-1.3s-.48-1.2-1.92-1.7c-2.28-.79-3.25-2-3.22-3.41,0-2.06,1.7-3.67,4.42-3.67a6.86,6.86,0,0,1,3.09.69l-.57,2.09a5.26,5.26,0,0,0-2.48-.67c-1,0-1.63.5-1.63,1.22s.55,1.11,2,1.64c2.11.77,3.1,1.85,3.12,3.57,0,2.12-1.65,3.65-4.75,3.65a7.51,7.51,0,0,1-3.55-.81ZM97.88,10.06v3.33h2.81V15.6H97.88v5.16c0,1.42.38,2.16,1.51,2.16a4.4,4.4,0,0,0,1.15-.14l0,2.25a6.4,6.4,0,0,1-2.13.29,3.43,3.43,0,0,1-2.55-1A4.67,4.67,0,0,1,95,21.1V15.6H93.32V13.39H95V10.75Zm11.74,15-.2-1.29h-.07a4.34,4.34,0,0,1-3.45,1.56,3.48,3.48,0,0,1-3.68-3.48c0-3,2.62-4.45,6.94-4.42v-.19c0-.77-.31-2-2.38-2a6.21,6.21,0,0,0-3.14.86l-.58-1.92a8.43,8.43,0,0,1,4.23-1c3.74,0,4.82,2.37,4.82,4.92v4.22a18.71,18.71,0,0,0,.17,2.81Zm-.39-5.71c-2.09-.05-4.08.41-4.08,2.18a1.55,1.55,0,0,0,1.68,1.68,2.39,2.39,0,0,0,2.31-1.61,2.1,2.1,0,0,0,.09-.64Zm6.12-2.21c0-1.58,0-2.71-.1-3.77h2.57l.1,2.23h.1a3.48,3.48,0,0,1,3.19-2.49,2.93,2.93,0,0,1,.69.07V16a4.73,4.73,0,0,0-.86-.09,2.6,2.6,0,0,0-2.64,2.23,4.87,4.87,0,0,0-.1.91v6h-3Zm12.6-7.1v3.33h2.81V15.6H128v5.16c0,1.42.38,2.16,1.51,2.16a4.4,4.4,0,0,0,1.15-.14l0,2.25a6.4,6.4,0,0,1-2.13.29,3.43,3.43,0,0,1-2.55-1,4.67,4.67,0,0,1-.91-3.26V15.6h-1.68V13.39h1.68V10.75Zm13.63,0v3.33h2.81V15.6h-2.81v5.16c0,1.42.39,2.16,1.51,2.16a4.55,4.55,0,0,0,1.16-.14l0,2.25a6.4,6.4,0,0,1-2.13.29,3.45,3.45,0,0,1-2.55-1,4.67,4.67,0,0,1-.91-3.26V15.6H137V13.39h1.68V10.75Zm11.74,15-.19-1.29h-.08a4.34,4.34,0,0,1-3.45,1.56,3.47,3.47,0,0,1-3.67-3.48c0-3,2.61-4.45,6.93-4.42v-.19c0-.77-.31-2-2.37-2a6.22,6.22,0,0,0-3.15.86l-.57-1.92a8.36,8.36,0,0,1,4.22-1c3.74,0,4.82,2.37,4.82,4.92v4.22a18.71,18.71,0,0,0,.17,2.81Zm-.39-5.71c-2.08-.05-4.08.41-4.08,2.18a1.55,1.55,0,0,0,1.68,1.68,2.39,2.39,0,0,0,2.31-1.61,2.1,2.1,0,0,0,.09-.64Zm16.8-6c0,.79-.09,1.75-.09,3.36v6.63c0,2.45-.51,4.2-1.73,5.3a6.71,6.71,0,0,1-4.51,1.42,8.21,8.21,0,0,1-4.08-.94l.65-2.23a7.05,7.05,0,0,0,3.4.89c1.92,0,3.36-1,3.36-3.53v-1h0A4,4,0,0,1,163.28,25c-2.91,0-5-2.4-5-5.71,0-3.84,2.5-6.17,5.3-6.17A3.68,3.68,0,0,1,167,15h.05l.12-1.56Zm-3,4.68a3,3,0,0,0-.1-.79,2.45,2.45,0,0,0-2.4-1.9c-1.66,0-2.88,1.44-2.88,3.82,0,2,1,3.6,2.86,3.6a2.53,2.53,0,0,0,2.4-1.77,5.3,5.3,0,0,0,.12-1.06Z"/>
    <path id="end-tag" class="fg-titles" d="M568.62,19.06c.07,2.12,1.73,3,3.6,3a8.7,8.7,0,0,0,3.24-.53l.43,2a11,11,0,0,1-4.08.72c-3.79,0-6-2.33-6-5.9,0-3.24,2-6.29,5.71-6.29s5,3.12,5,5.69a6.86,6.86,0,0,1-.1,1.24ZM573.75,17a2.51,2.51,0,0,0-2.42-2.86A2.89,2.89,0,0,0,568.62,17ZM579,15.87c0-1.34,0-2.47-.09-3.48h2.59l.14,1.75h.08a4.2,4.2,0,0,1,3.72-2c2,0,4.15,1.32,4.15,5v6.93h-3v-6.6c0-1.68-.63-3-2.24-3a2.48,2.48,0,0,0-2.3,1.73,3.15,3.15,0,0,0-.12,1v6.86h-3ZM603.66,7V20.79c0,1.2.05,2.5.09,3.29h-2.63L601,22.23h0a4.22,4.22,0,0,1-3.82,2.12c-2.78,0-5-2.38-5-6,0-3.91,2.42-6.24,5.23-6.24a3.73,3.73,0,0,1,3.29,1.53h.05V7Zm-2.95,10.23a3.94,3.94,0,0,0-.08-.77,2.58,2.58,0,0,0-2.54-2.09c-1.9,0-3,1.68-3,3.86s1.05,3.7,2.93,3.7a2.6,2.6,0,0,0,2.54-2.09,3.33,3.33,0,0,0,.1-.86Zm14.71-8.21v3.33h2.81V14.6h-2.81v5.16c0,1.42.38,2.16,1.51,2.16a4.46,4.46,0,0,0,1.15-.14l0,2.25a6.42,6.42,0,0,1-2.14.29,3.4,3.4,0,0,1-2.54-1,4.67,4.67,0,0,1-.91-3.26V14.6h-1.68V12.39h1.68V9.75Zm11.73,15L627,22.79h-.07a4.34,4.34,0,0,1-3.46,1.56,3.47,3.47,0,0,1-3.67-3.48c0-3,2.62-4.45,6.94-4.42v-.19c0-.77-.31-2-2.38-2a6.21,6.21,0,0,0-3.14.86l-.58-1.92a8.4,8.4,0,0,1,4.23-1c3.74,0,4.82,2.37,4.82,4.92v4.22a18.71,18.71,0,0,0,.17,2.81Zm-.38-5.71c-2.09-.05-4.08.41-4.08,2.18a1.54,1.54,0,0,0,1.68,1.68,2.37,2.37,0,0,0,2.3-1.61,1.85,1.85,0,0,0,.1-.64Zm16.8-6c-.05.79-.1,1.75-.1,3.36v6.63c0,2.45-.5,4.2-1.72,5.3a6.75,6.75,0,0,1-4.52,1.42,8.23,8.23,0,0,1-4.08-.94l.65-2.23a7.06,7.06,0,0,0,3.41.89c1.92,0,3.36-1,3.36-3.53v-1h-.05A4,4,0,0,1,637.11,24c-2.9,0-5-2.4-5-5.71,0-3.84,2.5-6.17,5.31-6.17A3.66,3.66,0,0,1,640.83,14h0l.12-1.56Zm-3.05,4.68a3,3,0,0,0-.09-.79,2.47,2.47,0,0,0-2.4-1.9c-1.66,0-2.88,1.44-2.88,3.82,0,2,1,3.6,2.85,3.6A2.51,2.51,0,0,0,640.4,20a5.3,5.3,0,0,0,.12-1.06Z"/>
    <path id="element" class="fg-titles" d="M325.9,146.06c.07,2.12,1.73,3,3.6,3a8.7,8.7,0,0,0,3.24-.53l.43,2a10.93,10.93,0,0,1-4.08.72c-3.79,0-6-2.33-6-5.9,0-3.24,2-6.29,5.71-6.29s5,3.12,5,5.69a8.22,8.22,0,0,1-.09,1.24ZM331,144c0-1.08-.46-2.86-2.43-2.86A2.89,2.89,0,0,0,325.9,144Zm5.28-10h3v17h-3Zm8.37,12c.07,2.12,1.73,3,3.6,3a8.66,8.66,0,0,0,3.24-.53l.43,2a10.93,10.93,0,0,1-4.08.72c-3.79,0-6-2.33-6-5.9,0-3.24,2-6.29,5.71-6.29s5,3.12,5,5.69a8.22,8.22,0,0,1-.09,1.24Zm5.14-2.06c0-1.08-.46-2.86-2.43-2.86a2.89,2.89,0,0,0-2.71,2.86Zm5.28-1.13c0-1.34,0-2.47-.1-3.48h2.55l.12,1.73h.07a4,4,0,0,1,3.6-2,3.38,3.38,0,0,1,3.24,2.16h.05a4.32,4.32,0,0,1,1.44-1.47,3.92,3.92,0,0,1,2.35-.69c1.94,0,3.91,1.32,3.91,5.06v6.89h-2.88v-6.46c0-1.94-.67-3.09-2.09-3.09a2.25,2.25,0,0,0-2.06,1.56,4.37,4.37,0,0,0-.14,1v7h-2.89v-6.77c0-1.63-.64-2.78-2-2.78a2.29,2.29,0,0,0-2.11,1.68,2.52,2.52,0,0,0-.17,1v6.91h-2.88Zm22.56,3.19c.07,2.12,1.73,3,3.6,3a8.7,8.7,0,0,0,3.24-.53l.43,2a11,11,0,0,1-4.08.72c-3.79,0-6-2.33-6-5.9,0-3.24,2-6.29,5.71-6.29s5,3.12,5,5.69a6.86,6.86,0,0,1-.1,1.24ZM382.8,144a2.51,2.51,0,0,0-2.42-2.86,2.89,2.89,0,0,0-2.71,2.86Zm5.28-1.13c0-1.34,0-2.47-.09-3.48h2.59l.14,1.75h.08a4.2,4.2,0,0,1,3.72-2c2,0,4.15,1.32,4.15,5v6.94h-2.95v-6.6c0-1.68-.63-2.95-2.24-2.95a2.48,2.48,0,0,0-2.3,1.73,2.87,2.87,0,0,0-.12,1v6.86h-3Zm17.12-6.81v3.33H408v2.21h-2.8v5.16c0,1.42.38,2.16,1.51,2.16a4.46,4.46,0,0,0,1.15-.14l.05,2.25a6.42,6.42,0,0,1-2.14.29,3.4,3.4,0,0,1-2.54-1,4.62,4.62,0,0,1-.91-3.26v-5.5h-1.68v-2.21h1.68v-2.64Z"/></g></svg>
