<svg xmlns="http://www.w3.org/2000/svg" viewBox="0 0 765 155.52"><defs><style>.cls-1,.cls-12,.cls-19,.cls-20,.cls-22,.cls-8{font-size:12px;font-family:Helvetica-Bold, Helvetica;font-weight:700;}.cls-1,.cls-24{fill:#646464;}.cls-2{letter-spacing:-0.05em;}.cls-14,.cls-16,.cls-18,.cls-3,.cls-9{fill:none;}.cls-3{stroke:#646464;stroke-width:4px;}.cls-14,.cls-15,.cls-16,.cls-17,.cls-18,.cls-3,.cls-9{stroke-miterlimit:10;}.cls-4,.cls-8{fill:#1572b6;}.cls-5{fill:#33a9dc;}.cls-15,.cls-17,.cls-6{fill:#fff;}.cls-7{fill:#ebebeb;}.cls-9{stroke:#1572b6;}.cls-14,.cls-15,.cls-16,.cls-17,.cls-18,.cls-9{stroke-width:2px;}.cls-10,.cls-12{fill:#e44d26;}.cls-11{fill:#f16529;}.cls-13{letter-spacing:-0.02em;}.cls-14{stroke:#e44d26;}.cls-15,.cls-16{stroke:#a5a5a5;}.cls-17,.cls-18{stroke:#349a46;}.cls-19{fill:#aaa;}.cls-20{fill:#008400;}.cls-21{letter-spacing:-0.07em;}.cls-22{fill:#fc0;}.cls-23{fill:#f15822;}</style></defs><title>timeline</title><g id="dates"><text class="cls-1" transform="translate(24.52 10.32)">1991</text><text class="cls-1" transform="translate(114.52 10.32)">1994</text><text class="cls-1" transform="translate(173.52 10.32)">1996</text><text class="cls-1" transform="translate(203.65 10.32)">1997</text><text class="cls-1" transform="translate(234.52 10.32)">1998</text><text class="cls-1" transform="translate(293.91 10.32)">2000</text><text class="cls-1" transform="translate(354.52 10.32)">2002</text><text class="cls-1" transform="translate(444.52 10.32)">2005</text><text class="cls-1" transform="translate(713.52 10.32)">2014</text><text class="cls-1" transform="translate(624.85 10.32)">20<tspan class="cls-2" x="13.35" y="0">1</tspan><tspan x="19.37" y="0">1</tspan></text></g><g id="line"><line class="cls-3" x1="6.5" y1="25.65" x2="757.5" y2="25.65"/></g><g id="css3"><path id="Shape" class="cls-4" d="M638.77,143.4l-3.61-40.5h39.68l-3.62,40.5L655,147.9Z" transform="translate(-17 -29.85)"/><path id="Shape-2" data-name="Shape" class="cls-5" d="M655,144.46l13.13-3.64,3.09-34.61H655Z" transform="translate(-17 -29.85)"/><g id="Group"><path id="Shape-3" data-name="Shape" class="cls-6" d="M655,120.89h6.57l.46-5.09h-7v-5h12.46l-.12,1.33-1.22,13.69H655Z" transform="translate(-17 -29.85)"/><path id="Shape-4" data-name="Shape" class="cls-7" d="M655,133.79h0l-5.53-1.49-.36-4h-5l.69,7.8L655,139h0Z" transform="translate(-17 -29.85)"/><path id="Shape-5" data-name="Shape" class="cls-6" d="M661.15,125.64l-.6,6.65-5.54,1.5V139l10.19-2.82.07-.84.86-9.66Z" transform="translate(-17 -29.85)"/><path id="Shape-6" data-name="Shape" class="cls-7" d="M655,110.83v5H643l-.1-1.12-.23-2.52-.12-1.33Z" transform="translate(-17 -29.85)"/><path id="Shape-7" data-name="Shape" class="cls-7" d="M655,120.89v5h-5.46l-.1-1.11-.23-2.52-.12-1.33Z" transform="translate(-17 -29.85)"/></g><text class="cls-8" transform="translate(620.66 67.34)">CSS 3</text><line class="cls-9" x1="638" y1="31.15" x2="638" y2="55.15"/></g><g id="html5"><polygon class="cls-10" points="711.77 112.96 708.16 72.46 747.84 72.46 744.23 112.95 727.98 117.46 711.77 112.96"/><polygon class="cls-11" points="728 114.02 741.13 110.38 744.22 75.77 728 75.77 728 114.02"/><polygon class="cls-7" points="728 90.79 721.43 90.79 720.97 85.71 728 85.71 728 80.74 727.98 80.74 715.54 80.74 715.66 82.07 716.88 95.76 728 95.76 728 90.79"/><polygon class="cls-7" points="728 103.69 727.98 103.7 722.45 102.2 722.09 98.24 719.4 98.24 717.11 98.24 717.8 106.04 727.98 108.87 728 108.86 728 103.69"/><polygon class="cls-6" points="727.98 90.79 727.98 95.76 734.1 95.76 733.52 102.2 727.98 103.7 727.98 108.86 738.17 106.04 738.24 105.2 739.41 92.13 739.53 90.79 738.19 90.79 727.98 90.79"/><polygon class="cls-6" points="727.98 80.74 727.98 83.82 727.98 85.69 727.98 85.71 739.97 85.71 739.97 85.71 739.98 85.71 740.08 84.59 740.31 82.07 740.43 80.74 727.98 80.74"/><text class="cls-12" transform="translate(706.44 67.34)">HTM<tspan class="cls-13" x="25.99" y="0">L</tspan><tspan x="33.11" y="0" xml:space="preserve"> 5</tspan></text><line class="cls-14" x1="728" y1="31.15" x2="728" y2="55.15"/></g><g id="bubbles"><path class="cls-15" d="M256.49,80H238.24l-3.74-3.74L230.76,80H212.51a3,3,0,0,0-3,3v9a3,3,0,0,0,3,3h44a3,3,0,0,0,3-3V83A3,3,0,0,0,256.49,80Z" transform="translate(-17 -29.85)"/><line class="cls-16" x1="217.25" y1="46.65" x2="217.25" y2="30.65"/><path class="cls-15" d="M166.49,80H148.24l-3.74-3.74L140.76,80H122.51a3,3,0,0,0-3,3v9a3,3,0,0,0,3,3h44a3,3,0,0,0,3-3V83A3,3,0,0,0,166.49,80Z" transform="translate(-17 -29.85)"/><line class="cls-16" x1="127.25" y1="46.65" x2="127.25" y2="30.65"/><path class="cls-15" d="M70.49,80H58.24L54.5,76.26,50.76,80H38.51a3,3,0,0,0-3,3v8a3,3,0,0,0,3,3h32a3,3,0,0,0,3-3V83A3,3,0,0,0,70.49,80Z" transform="translate(-17 -29.85)"/><line class="cls-16" x1="37.25" y1="46.65" x2="37.25" y2="30.65"/><path class="cls-15" d="M221.49,109H208.24l-3.74-3.74L200.76,109H187.51a3,3,0,0,0-3,3v9a3,3,0,0,0,3,3h34a3,3,0,0,0,3-3v-9A3,3,0,0,0,221.49,109Z" transform="translate(-17 -29.85)"/><line class="cls-16" x1="187.25" y1="76.65" x2="187.25" y2="32.65"/><path class="cls-15" d="M241.49,138H208.24l-3.74-3.74L200.76,138H167.51a3,3,0,0,0-3,3v9a3,3,0,0,0,3,3h74a3,3,0,0,0,3-3v-9A3,3,0,0,0,241.49,138Z" transform="translate(-17 -29.85)"/><line class="cls-16" x1="187.25" y1="104.65" x2="187.25" y2="93.65"/><path class="cls-15" d="M281.49,109H268.24l-3.74-3.74L260.76,109H247.51a3,3,0,0,0-3,3v9a3,3,0,0,0,3,3h34a3,3,0,0,0,3-3v-9A3,3,0,0,0,281.49,109Z" transform="translate(-17 -29.85)"/><line class="cls-16" x1="247.25" y1="76.65" x2="247.25" y2="32.65"/><path class="cls-15" d="M492,138H478.74L475,134.26,471.26,138H458a3,3,0,0,0-3,3v9a3,3,0,0,0,3,3h34a3,3,0,0,0,3-3v-9A3,3,0,0,0,492,138Z" transform="translate(-17 -29.85)"/><line class="cls-16" x1="457.75" y1="104.65" x2="457.75" y2="30.65"/><path class="cls-15" d="M351,167H327.74L324,163.26,320.26,167H297a3,3,0,0,0-3,3v9a3,3,0,0,0,3,3h54a3,3,0,0,0,3-3v-9A3,3,0,0,0,351,167Z" transform="translate(-17 -29.85)"/><line class="cls-16" x1="306.75" y1="133.65" x2="306.75" y2="30.65"/><path class="cls-17" d="M419,91H388.74L385,87.26,381.26,91H351a3,3,0,0,0-3,3v44a3,3,0,0,0,3,3h68a3,3,0,0,0,3-3V94A3,3,0,0,0,419,91Z" transform="translate(-17 -29.85)"/><line class="cls-18" x1="367.75" y1="57.65" x2="367.75" y2="32.65"/></g><g id="text"><text class="cls-8" transform="translate(170.16 91.34)">CSS 1</text><text class="cls-8" transform="translate(230.16 91.34)">CSS 2</text><text class="cls-12" transform="translate(20.94 62.14)">HTM<tspan class="cls-13" x="25.99" y="0">L</tspan></text><text class="cls-12" transform="translate(105.94 62.14)">HTM<tspan class="cls-13" x="25.99" y="0">L</tspan><tspan x="33.11" y="0" xml:space="preserve"> 2</tspan></text><text class="cls-12" transform="translate(195.94 62.14)">HTM<tspan class="cls-13" x="25.99" y="0">L</tspan><tspan x="33.11" y="0" xml:space="preserve"> 4</tspan></text><text class="cls-19" transform="translate(281.69 149.75)">XHTM<tspan class="cls-13" x="34" y="0">L</tspan><tspan x="41.12" y="0" xml:space="preserve"> 1</tspan></text><text class="cls-20" transform="translate(336.17 77.15)">BROWSER<tspan x="1.33" y="14.4">UPGRADE</tspan><tspan x="-0.89" y="28.8">CAM</tspan><tspan class="cls-21" x="26.44" y="28.8">P</tspan><tspan x="33.56" y="28.8">AIGN</tspan></text><text class="cls-22" transform="translate(441.5 120.55)">AJAX</text><text class="cls-22" transform="translate(150.36 120.55)">J<tspan class="cls-21" x="6.67" y="0">AV</tspan><tspan x="21.57" y="0">ASCRIPT</tspan></text></g><g id="dots"><circle class="cls-23" cx="7" cy="25.28" r="5"/><path class="cls-24" d="M24,52.13a3,3,0,1,1-3,3,3,3,0,0,1,3-3m0-4a7,7,0,1,0,7,7,7,7,0,0,0-7-7Z" transform="translate(-17 -29.85)"/><circle class="cls-23" cx="37.04" cy="25.28" r="5"/><path class="cls-24" d="M54,52.13a3,3,0,1,1-3,3,3,3,0,0,1,3-3m0-4a7,7,0,1,0,7,7,7,7,0,0,0-7-7Z" transform="translate(-17 -29.85)"/><circle class="cls-23" cx="67.08" cy="25.28" r="5"/><path class="cls-24" d="M84.08,52.13a3,3,0,1,1-3,3,3,3,0,0,1,3-3m0-4a7,7,0,1,0,7,7,7,7,0,0,0-7-7Z" transform="translate(-17 -29.85)"/><circle class="cls-23" cx="97.12" cy="25.28" r="5"/><path class="cls-24" d="M114.12,52.13a3,3,0,1,1-3,3,3,3,0,0,1,3-3m0-4a7,7,0,1,0,7,7,7,7,0,0,0-7-7Z" transform="translate(-17 -29.85)"/><circle class="cls-23" cx="127.16" cy="25.28" r="5"/><path class="cls-24" d="M144.16,52.13a3,3,0,1,1-3,3,3,3,0,0,1,3-3m0-4a7,7,0,1,0,7,7,7,7,0,0,0-7-7Z" transform="translate(-17 -29.85)"/><circle class="cls-23" cx="157.2" cy="25.28" r="5"/><path class="cls-24" d="M174.2,52.13a3,3,0,1,1-3,3,3,3,0,0,1,3-3m0-4a7,7,0,1,0,7,7,7,7,0,0,0-7-7Z" transform="translate(-17 -29.85)"/><circle class="cls-23" cx="187.24" cy="25.28" r="5"/><path class="cls-24" d="M204.24,52.13a3,3,0,1,1-3,3,3,3,0,0,1,3-3m0-4a7,7,0,1,0,7,7,7,7,0,0,0-7-7Z" transform="translate(-17 -29.85)"/><circle class="cls-23" cx="217.28" cy="25.28" r="5"/><path class="cls-24" d="M234.28,52.13a3,3,0,1,1-3,3,3,3,0,0,1,3-3m0-4a7,7,0,1,0,7,7,7,7,0,0,0-7-7Z" transform="translate(-17 -29.85)"/><circle class="cls-23" cx="247.32" cy="25.28" r="5"/><path class="cls-24" d="M264.32,52.13a3,3,0,1,1-3,3,3,3,0,0,1,3-3m0-4a7,7,0,1,0,7,7,7,7,0,0,0-7-7Z" transform="translate(-17 -29.85)"/><circle class="cls-23" cx="277.36" cy="25.28" r="5"/><path class="cls-24" d="M294.36,52.13a3,3,0,1,1-3,3,3,3,0,0,1,3-3m0-4a7,7,0,1,0,7,7,7,7,0,0,0-7-7Z" transform="translate(-17 -29.85)"/><circle class="cls-23" cx="307.26" cy="25.28" r="5"/><path class="cls-24" d="M324.26,52.13a3,3,0,1,1-3,3,3,3,0,0,1,3-3m0-4a7,7,0,1,0,7,7,7,7,0,0,0-7-7Z" transform="translate(-17 -29.85)"/><circle class="cls-23" cx="337.44" cy="25.28" r="5"/><path class="cls-24" d="M354.44,52.13a3,3,0,1,1-3,3,3,3,0,0,1,3-3m0-4a7,7,0,1,0,7,7,7,7,0,0,0-7-7Z" transform="translate(-17 -29.85)"/><circle class="cls-23" cx="367.48" cy="25.28" r="5"/><path class="cls-24" d="M384.48,52.13a3,3,0,1,1-3,3,3,3,0,0,1,3-3m0-4a7,7,0,1,0,7,7,7,7,0,0,0-7-7Z" transform="translate(-17 -29.85)"/><circle class="cls-23" cx="397.52" cy="25.28" r="5"/><path class="cls-24" d="M414.52,52.13a3,3,0,1,1-3,3,3,3,0,0,1,3-3m0-4a7,7,0,1,0,7,7,7,7,0,0,0-7-7Z" transform="translate(-17 -29.85)"/><circle class="cls-23" cx="427.56" cy="25.28" r="5"/><path class="cls-24" d="M444.56,52.13a3,3,0,1,1-3,3,3,3,0,0,1,3-3m0-4a7,7,0,1,0,7,7,7,7,0,0,0-7-7Z" transform="translate(-17 -29.85)"/><circle class="cls-23" cx="457.6" cy="25.28" r="5"/><path class="cls-24" d="M474.6,52.13a3,3,0,1,1-3,3,3,3,0,0,1,3-3m0-4a7,7,0,1,0,7,7,7,7,0,0,0-7-7Z" transform="translate(-17 -29.85)"/><circle class="cls-23" cx="487.64" cy="25.28" r="5"/><path class="cls-24" d="M504.64,52.13a3,3,0,1,1-3,3,3,3,0,0,1,3-3m0-4a7,7,0,1,0,7,7,7,7,0,0,0-7-7Z" transform="translate(-17 -29.85)"/><circle class="cls-23" cx="517.68" cy="25.28" r="5"/><path class="cls-24" d="M534.68,52.13a3,3,0,1,1-3,3,3,3,0,0,1,3-3m0-4a7,7,0,1,0,7,7,7,7,0,0,0-7-7Z" transform="translate(-17 -29.85)"/><circle class="cls-23" cx="547.72" cy="25.28" r="5"/><path class="cls-24" d="M564.72,52.13a3,3,0,1,1-3,3,3,3,0,0,1,3-3m0-4a7,7,0,1,0,7,7,7,7,0,0,0-7-7Z" transform="translate(-17 -29.85)"/><circle class="cls-23" cx="577.76" cy="25.28" r="5"/><path class="cls-24" d="M594.76,52.13a3,3,0,1,1-3,3,3,3,0,0,1,3-3m0-4a7,7,0,1,0,7,7,7,7,0,0,0-7-7Z" transform="translate(-17 -29.85)"/><circle class="cls-23" cx="607.8" cy="25.28" r="5"/><path class="cls-24" d="M624.8,52.13a3,3,0,1,1-3,3,3,3,0,0,1,3-3m0-4a7,7,0,1,0,7,7,7,7,0,0,0-7-7Z" transform="translate(-17 -29.85)"/><circle class="cls-23" cx="637.84" cy="25.28" r="5"/><path class="cls-24" d="M654.84,52.13a3,3,0,1,1-3,3,3,3,0,0,1,3-3m0-4a7,7,0,1,0,7,7,7,7,0,0,0-7-7Z" transform="translate(-17 -29.85)"/><circle class="cls-23" cx="667.88" cy="25.28" r="5"/><path class="cls-24" d="M684.88,52.13a3,3,0,1,1-3,3,3,3,0,0,1,3-3m0-4a7,7,0,1,0,7,7,7,7,0,0,0-7-7Z" transform="translate(-17 -29.85)"/><circle class="cls-23" cx="697.92" cy="25.28" r="5"/><path class="cls-24" d="M714.92,52.13a3,3,0,1,1-3,3,3,3,0,0,1,3-3m0-4a7,7,0,1,0,7,7,7,7,0,0,0-7-7Z" transform="translate(-17 -29.85)"/><circle class="cls-23" cx="727.96" cy="25.28" r="5"/><path class="cls-24" d="M745,52.13a3,3,0,1,1-3,3,3,3,0,0,1,3-3m0-4a7,7,0,1,0,7,7,7,7,0,0,0-7-7Z" transform="translate(-17 -29.85)"/><circle class="cls-23" cx="758" cy="25.28" r="5"/><path class="cls-24" d="M775,52.13a3,3,0,1,1-3,3,3,3,0,0,1,3-3m0-4a7,7,0,1,0,7,7,7,7,0,0,0-7-7Z" transform="translate(-17 -29.85)"/></g></svg>